# MagicaVoxel @ Ephtracy

# group
o 

# material
mtllib Radist-1.mtl
usemtl palette

# normals
vn -1 0 0
vn 1 0 0
vn 0 0 1
vn 0 0 -1
vn 0 -1 0
vn 0 1 0

# texcoords
vt 0.630859 0.5
vt 0.634766 0.5
vt 0.783203 0.5
vt 0.802734 0.5
vt 0.806641 0.5
vt 0.994141 0.5

# verts
v -0.1 -0.6 -0.2
v -0.1 -0.6 -0.3
v -0.1 -0.5 -0.1
v -0.1 -0.5 -0.2
v -0.1 -0.4 -0.1
v -0.1 -0.4 -0.2
v -0.1 -0.2 0
v -0.1 -0.2 -0.1
v -0.1 -0.1 -0.3
v -0.1 -0.1 -0.4
v -0.1 0.1 0
v -0.1 0.1 -0.2
v -0.1 0.1 -0.3
v -0.1 0.1 -0.4
v -0.1 0.2 0.5
v -0.1 0.2 0
v -0.1 0.2 -0.2
v -0.1 0.2 -0.3
v -0.1 0.3 0.4
v -0.1 0.3 0
v -0.1 0.3 -0.2
v -0.1 0.3 -0.3
v -0.1 0.3 -0.4
v -0.1 0.4 0.4
v -0.1 0.4 0
v -0.1 0.4 -0.1
v -0.1 0.4 -0.2
v -0.1 0.4 -0.3
v -0.1 0.4 -0.4
v -0.1 0.5 0.5
v -0.1 0.5 -0.1
v 0 -0.6 -0.1
v 0 -0.6 -0.2
v 0 -0.6 -0.3
v 0 -0.6 -0.4
v 0 -0.5 -0.1
v 0 -0.5 -0.2
v 0 -0.4 -0.3
v 0 -0.4 -0.4
v 0 -0.3 0
v 0 -0.3 -0.1
v 0 -0.2 0
v 0 -0.2 -0.1
v 0 -0.1 -0.3
v 0 -0.1 -0.4
v 0 -0.1 -0.5
v 0 0.1 -0.4
v 0 0.1 -0.5
v 0 0.3 0.4
v 0 0.3 0
v 0 0.3 -0.4
v 0 0.3 -0.5
v 0 0.4 0.4
v 0 0.4 0
v 0 0.4 -0.1
v 0 0.4 -0.2
v 0 0.4 -0.3
v 0 0.4 -0.4
v 0 0.4 -0.5
v 0 0.5 0
v 0 0.5 -0.1
v 0 0.5 -0.2
v 0 0.5 -0.3
v 0 0.5 -0.4
v 0 0.6 0
v 0 0.6 -0.1
v 0 0.6 -0.4
v 0 0.6 -0.5
v 0 0.7 -0.1
v 0 0.7 -0.4
v 0.1 -0.6 -0.2
v 0.1 -0.6 -0.3
v 0.1 -0.5 -0.2
v 0.1 -0.5 -0.3
v 0 -0.6 -0.2
v 0 -0.6 -0.3
v 0 -0.5 -0.2
v 0 -0.5 -0.3
v 0.1 -0.6 -0.1
v 0.1 -0.6 -0.2
v 0.1 -0.6 -0.3
v 0.1 -0.6 -0.4
v 0.1 -0.5 -0.1
v 0.1 -0.5 -0.2
v 0.1 -0.4 -0.3
v 0.1 -0.4 -0.4
v 0.1 -0.3 0
v 0.1 -0.3 -0.1
v 0.1 -0.2 0
v 0.1 -0.2 -0.1
v 0.1 -0.1 -0.3
v 0.1 -0.1 -0.4
v 0.1 -0.1 -0.5
v 0.1 0.1 -0.4
v 0.1 0.1 -0.5
v 0.1 0.3 -0.4
v 0.1 0.3 -0.5
v 0.1 0.4 -0.1
v 0.1 0.4 -0.2
v 0.1 0.4 -0.3
v 0.1 0.4 -0.4
v 0.1 0.4 -0.5
v 0.1 0.5 0
v 0.1 0.5 -0.1
v 0.1 0.5 -0.2
v 0.1 0.5 -0.3
v 0.1 0.5 -0.4
v 0.1 0.6 0
v 0.1 0.6 -0.1
v 0.1 0.6 -0.4
v 0.1 0.6 -0.5
v 0.1 0.7 -0.1
v 0.1 0.7 -0.4
v 0.2 -0.6 -0.2
v 0.2 -0.6 -0.3
v 0.2 -0.5 -0.1
v 0.2 -0.5 -0.2
v 0.2 -0.4 -0.1
v 0.2 -0.4 -0.2
v 0.2 -0.2 0
v 0.2 -0.2 -0.1
v 0.2 -0.1 -0.3
v 0.2 -0.1 -0.4
v 0.2 0.1 0
v 0.2 0.1 -0.2
v 0.2 0.1 -0.3
v 0.2 0.1 -0.4
v 0.2 0.2 0.5
v 0.2 0.2 0
v 0.2 0.2 -0.2
v 0.2 0.2 -0.3
v 0.2 0.3 0
v 0.2 0.3 -0.2
v 0.2 0.3 -0.3
v 0.2 0.3 -0.4
v 0.2 0.4 -0.1
v 0.2 0.4 -0.2
v 0.2 0.4 -0.3
v 0.2 0.4 -0.4
v 0.2 0.5 0.5
v 0.2 0.5 -0.1
v -0.1 0.2 0.5
v -0.1 0.5 0.5
v 0.2 0.2 0.5
v 0.2 0.5 0.5
v -0.1 -0.2 0
v -0.1 0.1 0
v -0.1 0.2 0
v -0.1 0.3 0
v -0.1 0.4 0
v 0 -0.3 0
v 0 -0.2 0
v 0 0.1 0
v 0 0.2 0
v 0 0.3 0
v 0 0.4 0
v 0 0.5 0
v 0 0.6 0
v 0.1 -0.3 0
v 0.1 -0.2 0
v 0.1 0.1 0
v 0.1 0.2 0
v 0.1 0.5 0
v 0.1 0.6 0
v 0.2 -0.2 0
v 0.2 0.1 0
v 0.2 0.2 0
v -0.1 -0.5 -0.1
v -0.1 -0.4 -0.1
v -0.1 -0.2 -0.1
v 0 -0.6 -0.1
v 0 -0.5 -0.1
v 0 -0.3 -0.1
v 0 -0.2 -0.1
v 0 0.6 -0.1
v 0 0.7 -0.1
v 0.1 -0.6 -0.1
v 0.1 -0.5 -0.1
v 0.1 -0.3 -0.1
v 0.1 -0.2 -0.1
v 0.1 0.6 -0.1
v 0.1 0.7 -0.1
v 0.2 -0.5 -0.1
v 0.2 -0.4 -0.1
v 0.2 -0.2 -0.1
v -0.1 -0.6 -0.2
v -0.1 -0.5 -0.2
v 0 -0.6 -0.2
v 0 -0.5 -0.2
v 0.1 -0.6 -0.2
v 0.1 -0.5 -0.2
v 0.2 -0.6 -0.2
v 0.2 -0.5 -0.2
v 0 -0.6 -0.3
v 0 -0.5 -0.3
v 0.1 -0.6 -0.3
v 0.1 -0.5 -0.3
v 0 0.5 -0.4
v 0 0.6 -0.4
v 0.1 0.5 -0.4
v 0.1 0.6 -0.4
v -0.1 0.3 0.4
v -0.1 0.4 0.4
v 0 0.3 0.4
v 0 0.4 0.4
v -0.1 0.4 -0.1
v -0.1 0.5 -0.1
v 0 0.4 -0.1
v 0 0.5 -0.1
v 0 0.6 -0.1
v 0.1 0.4 -0.1
v 0.1 0.5 -0.1
v 0.1 0.6 -0.1
v 0.2 0.4 -0.1
v 0.2 0.5 -0.1
v 0 -0.6 -0.2
v 0 -0.5 -0.2
v 0.1 -0.6 -0.2
v 0.1 -0.5 -0.2
v -0.1 -0.6 -0.3
v -0.1 -0.1 -0.3
v 0 -0.6 -0.3
v 0 -0.4 -0.3
v 0 -0.1 -0.3
v 0.1 -0.6 -0.3
v 0.1 -0.4 -0.3
v 0.1 -0.1 -0.3
v 0.2 -0.6 -0.3
v 0.2 -0.1 -0.3
v -0.1 -0.1 -0.4
v -0.1 0.1 -0.4
v -0.1 0.3 -0.4
v -0.1 0.4 -0.4
v 0 -0.6 -0.4
v 0 -0.4 -0.4
v 0 -0.1 -0.4
v 0 0.1 -0.4
v 0 0.3 -0.4
v 0 0.4 -0.4
v 0 0.6 -0.4
v 0 0.7 -0.4
v 0.1 -0.6 -0.4
v 0.1 -0.4 -0.4
v 0.1 -0.1 -0.4
v 0.1 0.1 -0.4
v 0.1 0.3 -0.4
v 0.1 0.4 -0.4
v 0.1 0.6 -0.4
v 0.1 0.7 -0.4
v 0.2 -0.1 -0.4
v 0.2 0.1 -0.4
v 0.2 0.3 -0.4
v 0.2 0.4 -0.4
v 0 -0.1 -0.5
v 0 0.1 -0.5
v 0 0.3 -0.5
v 0 0.4 -0.5
v 0 0.6 -0.5
v 0.1 -0.1 -0.5
v 0.1 0.1 -0.5
v 0.1 0.3 -0.5
v 0.1 0.4 -0.5
v 0.1 0.6 -0.5
v 0 -0.6 -0.1
v 0.1 -0.6 -0.1
v -0.1 -0.6 -0.2
v 0 -0.6 -0.2
v 0.1 -0.6 -0.2
v 0.2 -0.6 -0.2
v -0.1 -0.6 -0.3
v 0 -0.6 -0.3
v 0.1 -0.6 -0.3
v 0.2 -0.6 -0.3
v 0 -0.6 -0.4
v 0.1 -0.6 -0.4
v -0.1 -0.5 -0.1
v 0 -0.5 -0.1
v 0.1 -0.5 -0.1
v 0.2 -0.5 -0.1
v -0.1 -0.5 -0.2
v 0 -0.5 -0.2
v 0.1 -0.5 -0.2
v 0.2 -0.5 -0.2
v 0 -0.5 -0.3
v 0.1 -0.5 -0.3
v 0 -0.3 0
v 0.1 -0.3 0
v 0 -0.3 -0.1
v 0.1 -0.3 -0.1
v -0.1 -0.2 0
v 0 -0.2 0
v 0.1 -0.2 0
v 0.2 -0.2 0
v -0.1 -0.2 -0.1
v 0 -0.2 -0.1
v 0.1 -0.2 -0.1
v 0.2 -0.2 -0.1
v -0.1 -0.1 -0.3
v 0 -0.1 -0.3
v 0.1 -0.1 -0.3
v 0.2 -0.1 -0.3
v -0.1 -0.1 -0.4
v 0 -0.1 -0.4
v 0.1 -0.1 -0.4
v 0.2 -0.1 -0.4
v 0 -0.1 -0.5
v 0.1 -0.1 -0.5
v -0.1 0.2 0.5
v 0.2 0.2 0.5
v -0.1 0.2 0
v 0 0.2 0
v 0.1 0.2 0
v 0.2 0.2 0
v -0.1 0.4 0.4
v 0 0.4 0.4
v -0.1 0.4 0
v 0 0.4 0
v 0 0.6 -0.1
v 0.1 0.6 -0.1
v 0 0.6 -0.4
v 0.1 0.6 -0.4
v -0.1 0.3 0.4
v 0 0.3 0.4
v -0.1 0.3 0
v 0 0.3 0
v -0.1 0.4 -0.1
v 0 0.4 -0.1
v 0.1 0.4 -0.1
v 0.2 0.4 -0.1
v -0.1 0.4 -0.2
v 0 0.4 -0.2
v 0.1 0.4 -0.2
v 0.2 0.4 -0.2
v -0.1 0.4 -0.3
v 0 0.4 -0.3
v 0.1 0.4 -0.3
v 0.2 0.4 -0.3
v -0.1 0.4 -0.4
v 0 0.4 -0.4
v 0.1 0.4 -0.4
v 0.2 0.4 -0.4
v -0.1 0.5 0.5
v 0.2 0.5 0.5
v 0 0.5 0
v 0.1 0.5 0
v -0.1 0.5 -0.1
v 0 0.5 -0.1
v 0.1 0.5 -0.1
v 0.2 0.5 -0.1
v 0 0.5 -0.2
v 0.1 0.5 -0.2
v 0 0.5 -0.3
v 0.1 0.5 -0.3
v 0 0.5 -0.4
v 0.1 0.5 -0.4
v 0 0.6 0
v 0.1 0.6 0
v 0 0.6 -0.1
v 0.1 0.6 -0.1
v 0 0.6 -0.4
v 0.1 0.6 -0.4
v 0 0.6 -0.5
v 0.1 0.6 -0.5
v 0 0.7 -0.1
v 0.1 0.7 -0.1
v 0 0.7 -0.4
v 0.1 0.7 -0.4

# faces
f 4/3/1 2/3/1 1/3/1
f 5/3/1 4/3/1 3/3/1
f 6/3/1 2/3/1 4/3/1
f 6/3/1 4/3/1 5/3/1
f 8/5/1 6/5/1 5/5/1
f 9/3/1 2/3/1 6/3/1
f 11/5/1 8/5/1 7/5/1
f 12/5/1 6/5/1 8/5/1
f 12/5/1 8/5/1 11/5/1
f 12/3/1 9/3/1 6/3/1
f 13/5/1 10/5/1 9/5/1
f 13/3/1 9/3/1 12/3/1
f 14/5/1 10/5/1 13/5/1
f 16/3/1 12/3/1 11/3/1
f 17/1/1 13/1/1 12/1/1
f 17/3/1 12/3/1 16/3/1
f 18/3/1 14/3/1 13/3/1
f 18/1/1 13/1/1 17/1/1
f 19/5/1 16/5/1 15/5/1
f 20/3/1 17/3/1 16/3/1
f 20/5/1 16/5/1 19/5/1
f 21/2/1 18/2/1 17/2/1
f 21/3/1 17/3/1 20/3/1
f 22/3/1 14/3/1 18/3/1
f 22/2/1 18/2/1 21/2/1
f 23/3/1 14/3/1 22/3/1
f 24/5/1 19/5/1 15/5/1
f 25/5/1 21/5/1 20/5/1
f 26/5/1 21/5/1 25/5/1
f 27/3/1 22/3/1 21/3/1
f 27/5/1 21/5/1 26/5/1
f 28/5/1 23/5/1 22/5/1
f 28/3/1 22/3/1 27/3/1
f 29/5/1 23/5/1 28/5/1
f 30/5/1 24/5/1 15/5/1
f 30/5/1 25/5/1 24/5/1
f 30/5/1 26/5/1 25/5/1
f 31/5/1 26/5/1 30/5/1
f 36/3/1 33/3/1 32/3/1
f 37/3/1 33/3/1 36/3/1
f 38/3/1 35/3/1 34/3/1
f 39/3/1 35/3/1 38/3/1
f 42/5/1 41/5/1 40/5/1
f 43/5/1 41/5/1 42/5/1
f 44/5/1 39/5/1 38/5/1
f 45/5/1 39/5/1 44/5/1
f 47/5/1 46/5/1 45/5/1
f 48/5/1 46/5/1 47/5/1
f 51/3/1 48/3/1 47/3/1
f 52/3/1 48/3/1 51/3/1
f 53/5/1 50/5/1 49/5/1
f 54/5/1 50/5/1 53/5/1
f 58/5/1 52/5/1 51/5/1
f 59/5/1 52/5/1 58/5/1
f 61/5/1 56/5/1 55/5/1
f 62/3/1 57/3/1 56/3/1
f 62/5/1 56/5/1 61/5/1
f 63/5/1 58/5/1 57/5/1
f 63/3/1 57/3/1 62/3/1
f 64/4/1 59/4/1 58/4/1
f 64/5/1 58/5/1 63/5/1
f 65/4/1 61/4/1 60/4/1
f 66/4/1 61/4/1 65/4/1
f 67/4/1 59/4/1 64/4/1
f 68/4/1 59/4/1 67/4/1
f 69/4/1 67/4/1 66/4/1
f 70/4/1 67/4/1 69/4/1
f 73/3/1 72/3/1 71/3/1
f 74/3/1 72/3/1 73/3/1
f 75/3/2 76/3/2 77/3/2
f 77/3/2 76/3/2 78/3/2
f 79/3/2 80/3/2 83/3/2
f 83/3/2 80/3/2 84/3/2
f 81/3/2 82/3/2 85/3/2
f 85/3/2 82/3/2 86/3/2
f 87/5/2 88/5/2 89/5/2
f 89/5/2 88/5/2 90/5/2
f 85/5/2 86/5/2 91/5/2
f 91/5/2 86/5/2 92/5/2
f 92/5/2 93/5/2 94/5/2
f 94/5/2 93/5/2 95/5/2
f 94/3/2 95/3/2 96/3/2
f 96/3/2 95/3/2 97/3/2
f 96/5/2 97/5/2 101/5/2
f 101/5/2 97/5/2 102/5/2
f 98/5/2 99/5/2 104/5/2
f 99/3/2 100/3/2 105/3/2
f 104/5/2 99/5/2 105/5/2
f 100/5/2 101/5/2 106/5/2
f 105/3/2 100/3/2 106/3/2
f 101/4/2 102/4/2 107/4/2
f 106/5/2 101/5/2 107/5/2
f 103/4/2 104/4/2 108/4/2
f 108/4/2 104/4/2 109/4/2
f 107/4/2 102/4/2 110/4/2
f 110/4/2 102/4/2 111/4/2
f 109/4/2 110/4/2 112/4/2
f 112/4/2 110/4/2 113/4/2
f 114/3/2 115/3/2 117/3/2
f 116/3/2 117/3/2 118/3/2
f 117/3/2 115/3/2 119/3/2
f 118/3/2 117/3/2 119/3/2
f 118/5/2 119/5/2 121/5/2
f 119/3/2 115/3/2 122/3/2
f 120/5/2 121/5/2 124/5/2
f 121/5/2 119/5/2 125/5/2
f 124/5/2 121/5/2 125/5/2
f 119/3/2 122/3/2 125/3/2
f 122/5/2 123/5/2 126/5/2
f 125/3/2 122/3/2 126/3/2
f 126/5/2 123/5/2 127/5/2
f 124/3/2 125/3/2 129/3/2
f 125/1/2 126/1/2 130/1/2
f 129/3/2 125/3/2 130/3/2
f 126/3/2 127/3/2 131/3/2
f 130/1/2 126/1/2 131/1/2
f 128/5/2 129/5/2 132/5/2
f 129/3/2 130/3/2 132/3/2
f 130/2/2 131/2/2 133/2/2
f 132/3/2 130/3/2 133/3/2
f 131/3/2 127/3/2 134/3/2
f 133/2/2 131/2/2 134/2/2
f 134/3/2 127/3/2 135/3/2
f 132/5/2 133/5/2 136/5/2
f 133/3/2 134/3/2 137/3/2
f 136/5/2 133/5/2 137/5/2
f 134/5/2 135/5/2 138/5/2
f 137/3/2 134/3/2 138/3/2
f 138/5/2 135/5/2 139/5/2
f 128/5/2 132/5/2 140/5/2
f 132/5/2 136/5/2 140/5/2
f 140/5/2 136/5/2 141/5/2
f 144/5/3 143/5/3 142/5/3
f 145/5/3 143/5/3 144/5/3
f 152/5/3 147/5/3 146/5/3
f 153/3/3 148/3/3 147/3/3
f 153/5/3 147/5/3 152/5/3
f 154/3/3 148/3/3 153/3/3
f 155/5/3 150/5/3 149/5/3
f 156/5/3 150/5/3 155/5/3
f 159/5/3 154/5/3 153/5/3
f 159/5/3 152/5/3 151/5/3
f 159/5/3 153/5/3 152/5/3
f 160/5/3 154/5/3 159/5/3
f 161/5/3 154/5/3 160/5/3
f 162/5/3 154/5/3 161/5/3
f 163/4/3 158/4/3 157/4/3
f 164/4/3 158/4/3 163/4/3
f 165/5/3 161/5/3 160/5/3
f 166/3/3 162/3/3 161/3/3
f 166/5/3 161/5/3 165/5/3
f 167/3/3 162/3/3 166/3/3
f 172/3/3 169/3/3 168/3/3
f 173/5/3 170/5/3 169/5/3
f 174/5/3 170/5/3 173/5/3
f 177/3/3 172/3/3 171/3/3
f 178/3/3 169/3/3 172/3/3
f 178/3/3 172/3/3 177/3/3
f 179/5/3 173/5/3 169/5/3
f 181/4/3 176/4/3 175/4/3
f 182/4/3 176/4/3 181/4/3
f 183/3/3 169/3/3 178/3/3
f 184/5/3 180/5/3 179/5/3
f 184/3/3 169/3/3 183/3/3
f 184/5/3 179/5/3 169/5/3
f 185/5/3 180/5/3 184/5/3
f 188/3/3 187/3/3 186/3/3
f 189/3/3 187/3/3 188/3/3
f 192/3/3 191/3/3 190/3/3
f 193/3/3 191/3/3 192/3/3
f 196/3/3 195/3/3 194/3/3
f 197/3/3 195/3/3 196/3/3
f 200/4/3 199/4/3 198/4/3
f 201/4/3 199/4/3 200/4/3
f 202/5/4 203/5/4 204/5/4
f 204/5/4 203/5/4 205/5/4
f 206/5/4 207/5/4 208/5/4
f 208/5/4 207/5/4 209/5/4
f 209/4/4 210/4/4 212/4/4
f 212/4/4 210/4/4 213/4/4
f 211/5/4 212/5/4 214/5/4
f 214/5/4 212/5/4 215/5/4
f 216/3/4 217/3/4 218/3/4
f 218/3/4 217/3/4 219/3/4
f 220/3/4 221/3/4 222/3/4
f 222/3/4 221/3/4 223/3/4
f 223/3/4 221/3/4 224/3/4
f 225/3/4 226/3/4 228/3/4
f 226/3/4 227/3/4 228/3/4
f 228/3/4 227/3/4 229/3/4
f 230/5/4 231/5/4 236/5/4
f 231/3/4 232/3/4 237/3/4
f 236/5/4 231/5/4 237/5/4
f 232/5/4 233/5/4 238/5/4
f 237/3/4 232/3/4 238/3/4
f 238/5/4 233/5/4 239/5/4
f 234/3/4 235/3/4 242/3/4
f 235/5/4 236/5/4 243/5/4
f 242/3/4 235/3/4 243/3/4
f 243/5/4 236/5/4 244/5/4
f 240/4/4 241/4/4 248/4/4
f 248/4/4 241/4/4 249/4/4
f 244/5/4 245/5/4 250/5/4
f 245/3/4 246/3/4 251/3/4
f 250/5/4 245/5/4 251/5/4
f 246/5/4 247/5/4 252/5/4
f 251/3/4 246/3/4 252/3/4
f 252/5/4 247/5/4 253/5/4
f 254/5/4 255/5/4 259/5/4
f 255/3/4 256/3/4 260/3/4
f 259/5/4 255/5/4 260/5/4
f 256/5/4 257/5/4 261/5/4
f 260/3/4 256/3/4 261/3/4
f 257/4/4 258/4/4 262/4/4
f 261/5/4 257/5/4 262/5/4
f 262/4/4 258/4/4 263/4/4
f 267/3/5 265/3/5 264/3/5
f 268/3/5 265/3/5 267/3/5
f 270/3/5 267/3/5 266/3/5
f 271/3/5 267/3/5 270/3/5
f 272/3/5 269/3/5 268/3/5
f 273/3/5 269/3/5 272/3/5
f 274/3/5 272/3/5 271/3/5
f 275/3/5 272/3/5 274/3/5
f 280/3/5 277/3/5 276/3/5
f 281/3/5 277/3/5 280/3/5
f 282/3/5 279/3/5 278/3/5
f 283/3/5 279/3/5 282/3/5
f 284/6/5 282/6/5 281/6/5
f 285/6/5 282/6/5 284/6/5
f 288/5/5 287/5/5 286/5/5
f 289/5/5 287/5/5 288/5/5
f 294/5/5 291/5/5 290/5/5
f 295/5/5 291/5/5 294/5/5
f 296/5/5 293/5/5 292/5/5
f 297/5/5 293/5/5 296/5/5
f 302/5/5 299/5/5 298/5/5
f 303/5/5 299/5/5 302/5/5
f 304/5/5 301/5/5 300/5/5
f 305/5/5 301/5/5 304/5/5
f 306/5/5 304/5/5 303/5/5
f 307/5/5 304/5/5 306/5/5
f 310/5/5 309/5/5 308/5/5
f 311/5/5 309/5/5 310/5/5
f 312/5/5 309/5/5 311/5/5
f 313/5/5 309/5/5 312/5/5
f 316/5/5 315/5/5 314/5/5
f 317/5/5 315/5/5 316/5/5
f 320/4/5 319/4/5 318/4/5
f 321/4/5 319/4/5 320/4/5
f 322/5/6 323/5/6 324/5/6
f 324/5/6 323/5/6 325/5/6
f 326/5/6 327/5/6 330/5/6
f 330/5/6 327/5/6 331/5/6
f 328/5/6 329/5/6 332/5/6
f 332/5/6 329/5/6 333/5/6
f 330/3/6 331/3/6 334/3/6
f 334/3/6 331/3/6 335/3/6
f 332/3/6 333/3/6 336/3/6
f 336/3/6 333/3/6 337/3/6
f 334/5/6 335/5/6 338/5/6
f 338/5/6 335/5/6 339/5/6
f 336/5/6 337/5/6 340/5/6
f 340/5/6 337/5/6 341/5/6
f 342/5/6 343/5/6 344/5/6
f 344/5/6 343/5/6 345/5/6
f 342/5/6 344/5/6 346/5/6
f 346/5/6 344/5/6 347/5/6
f 345/5/6 343/5/6 348/5/6
f 348/5/6 343/5/6 349/5/6
f 347/5/6 348/5/6 350/5/6
f 350/5/6 348/5/6 351/5/6
f 350/3/6 351/3/6 352/3/6
f 352/3/6 351/3/6 353/3/6
f 352/5/6 353/5/6 354/5/6
f 354/5/6 353/5/6 355/5/6
f 356/4/6 357/4/6 358/4/6
f 358/4/6 357/4/6 359/4/6
f 360/4/6 361/4/6 362/4/6
f 362/4/6 361/4/6 363/4/6
f 364/4/6 365/4/6 366/4/6
f 366/4/6 365/4/6 367/4/6
