# MagicaVoxel @ Ephtracy

# group
o 

# material
mtllib Radist-5.mtl
usemtl palette

# normals
vn -1 0 0
vn 1 0 0
vn 0 0 1
vn 0 0 -1
vn 0 -1 0
vn 0 1 0

# texcoords
vt 0.626953 0.5
vt 0.630859 0.5
vt 0.634766 0.5
vt 0.638672 0.5
vt 0.751953 0.5
vt 0.755859 0.5
vt 0.759766 0.5
vt 0.763672 0.5
vt 0.947266 0.5
vt 0.951172 0.5
vt 0.955078 0.5

# verts
v -0.7 0.4 0
v -0.7 0.4 -0.1
v -0.7 0.5 0
v -0.7 0.5 -0.1
v -0.7 0.6 0
v -0.7 0.6 -0.1
v -0.6 0.3 0
v -0.6 0.3 -0.1
v -0.6 0.4 0.1
v -0.6 0.4 0
v -0.6 0.4 -0.1
v -0.6 0.4 -0.2
v -0.6 0.5 0.1
v -0.6 0.5 0
v -0.6 0.5 -0.1
v -0.6 0.5 -0.2
v -0.6 0.6 0.1
v -0.6 0.6 0
v -0.6 0.6 -0.1
v -0.6 0.6 -0.2
v -0.6 0.9 0
v -0.6 0.9 -0.1
v -0.6 1 0
v -0.6 1 -0.1
v -0.5 -1 0.2
v -0.5 -1 -0.3
v -0.5 -0.9 0.1
v -0.5 -0.9 -0.2
v -0.5 -0.2 0.2
v -0.5 -0.2 0.1
v -0.5 -0.2 -0.1
v -0.5 -0.1 0.1
v -0.5 -0.1 0
v -0.5 0 0.1
v -0.5 0 0
v -0.5 0.1 0.2
v -0.5 0.1 0.1
v -0.5 0.1 -0.1
v -0.5 0.2 0
v -0.5 0.2 -0.1
v -0.5 0.3 0.1
v -0.5 0.3 0
v -0.5 0.3 -0.1
v -0.5 0.3 -0.2
v -0.5 0.4 0.1
v -0.5 0.4 0
v -0.5 0.4 -0.1
v -0.5 0.4 -0.2
v -0.5 0.5 0.1
v -0.5 0.5 -0.2
v -0.5 0.6 0.2
v -0.5 0.6 0.1
v -0.5 0.6 -0.2
v -0.5 0.6 -0.3
v -0.4 -0.2 0.2
v -0.4 -0.2 0.1
v -0.4 -0.1 0.2
v -0.4 -0.1 0.1
v -0.4 -0.1 0
v -0.4 0 0.2
v -0.4 0 0.1
v -0.4 0 0
v -0.4 0.1 0.2
v -0.4 0.1 0.1
v -0.3 -0.7 0.3
v -0.3 -0.7 0.2
v -0.3 -0.5 0.3
v -0.3 -0.5 0.2
v -0.2 -0.8 0.3
v -0.2 -0.8 0.2
v -0.2 -0.7 0.3
v -0.2 -0.7 0.2
v -0.2 -0.5 0.3
v -0.2 -0.5 0.2
v -0.2 -0.4 0.3
v -0.2 -0.4 0.2
v 0.5 0.6 0
v 0.5 0.6 -0.1
v 0.5 0.9 0
v 0.5 0.9 -0.1
v 0.5 1 0
v 0.5 1 -0.1
v -0.5 0.6 0
v -0.5 0.6 -0.1
v -0.5 0.9 0
v -0.5 0.9 -0.1
v -0.5 1 0
v -0.5 1 -0.1
v 0.2 -0.8 0.3
v 0.2 -0.8 0.2
v 0.2 -0.7 0.3
v 0.2 -0.7 0.2
v 0.2 -0.5 0.3
v 0.2 -0.5 0.2
v 0.2 -0.4 0.3
v 0.2 -0.4 0.2
v 0.3 -0.7 0.3
v 0.3 -0.7 0.2
v 0.3 -0.5 0.3
v 0.3 -0.5 0.2
v 0.4 -0.2 0.2
v 0.4 -0.2 0.1
v 0.4 -0.1 0.2
v 0.4 -0.1 0.1
v 0.4 -0.1 0
v 0.4 0 0.2
v 0.4 0 0.1
v 0.4 0 0
v 0.4 0.1 0.2
v 0.4 0.1 0.1
v 0.5 -1 0.2
v 0.5 -1 -0.3
v 0.5 -0.9 0.1
v 0.5 -0.9 -0.2
v 0.5 -0.2 0.2
v 0.5 -0.2 0.1
v 0.5 -0.2 -0.1
v 0.5 -0.1 0.1
v 0.5 -0.1 0
v 0.5 0 0.1
v 0.5 0 0
v 0.5 0.1 0.2
v 0.5 0.1 0.1
v 0.5 0.1 -0.1
v 0.5 0.2 0
v 0.5 0.2 -0.1
v 0.5 0.3 0.1
v 0.5 0.3 0
v 0.5 0.3 -0.1
v 0.5 0.3 -0.2
v 0.5 0.4 0.1
v 0.5 0.4 0
v 0.5 0.4 -0.1
v 0.5 0.4 -0.2
v 0.5 0.5 0.1
v 0.5 0.5 -0.2
v 0.5 0.6 0.2
v 0.5 0.6 0.1
v 0.5 0.6 -0.2
v 0.5 0.6 -0.3
v 0.6 0.3 0
v 0.6 0.3 -0.1
v 0.6 0.4 0.1
v 0.6 0.4 0
v 0.6 0.4 -0.1
v 0.6 0.4 -0.2
v 0.6 0.5 0.1
v 0.6 0.5 0
v 0.6 0.5 -0.1
v 0.6 0.5 -0.2
v 0.6 0.6 0.1
v 0.6 0.6 0
v 0.6 0.6 -0.1
v 0.6 0.6 -0.2
v 0.6 0.9 0
v 0.6 0.9 -0.1
v 0.6 1 0
v 0.6 1 -0.1
v 0.7 0.4 0
v 0.7 0.4 -0.1
v 0.7 0.5 0
v 0.7 0.5 -0.1
v 0.7 0.6 0
v 0.7 0.6 -0.1
v -0.3 -0.7 0.3
v -0.3 -0.5 0.3
v -0.2 -0.8 0.3
v -0.2 -0.7 0.3
v -0.2 -0.6 0.3
v -0.2 -0.5 0.3
v -0.2 -0.4 0.3
v -0.1 -0.6 0.3
v -0.1 -0.5 0.3
v 0 -0.6 0.3
v 0 -0.5 0.3
v 0.1 -0.6 0.3
v 0.1 -0.5 0.3
v 0.2 -0.8 0.3
v 0.2 -0.7 0.3
v 0.2 -0.6 0.3
v 0.2 -0.5 0.3
v 0.2 -0.4 0.3
v 0.3 -0.7 0.3
v 0.3 -0.5 0.3
v -0.5 -1 0.2
v -0.5 -0.2 0.2
v -0.5 0.1 0.2
v -0.5 0.6 0.2
v -0.4 -0.9 0.2
v -0.4 -0.2 0.2
v -0.4 -0.1 0.2
v -0.4 0 0.2
v -0.4 0.1 0.2
v -0.4 0.5 0.2
v -0.3 -0.7 0.2
v -0.3 -0.5 0.2
v -0.3 0.3 0.2
v -0.3 0.4 0.2
v -0.2 -0.8 0.2
v -0.2 -0.7 0.2
v -0.2 -0.5 0.2
v -0.2 -0.4 0.2
v -0.2 0.3 0.2
v -0.2 0.4 0.2
v -0.1 0.3 0.2
v -0.1 0.4 0.2
v 0.1 0.2 0.2
v 0.1 0.3 0.2
v 0.1 0.4 0.2
v 0.2 -0.8 0.2
v 0.2 -0.7 0.2
v 0.2 -0.5 0.2
v 0.2 -0.4 0.2
v 0.2 0.2 0.2
v 0.2 0.3 0.2
v 0.2 0.4 0.2
v 0.3 -0.7 0.2
v 0.3 -0.5 0.2
v 0.3 0.2 0.2
v 0.3 0.3 0.2
v 0.3 0.4 0.2
v 0.4 -0.9 0.2
v 0.4 -0.2 0.2
v 0.4 -0.1 0.2
v 0.4 0 0.2
v 0.4 0.1 0.2
v 0.4 0.5 0.2
v 0.5 -1 0.2
v 0.5 -0.2 0.2
v 0.5 0.1 0.2
v 0.5 0.6 0.2
v -0.6 0.4 0.1
v -0.6 0.5 0.1
v -0.6 0.6 0.1
v -0.5 -0.2 0.1
v -0.5 -0.1 0.1
v -0.5 0 0.1
v -0.5 0.1 0.1
v -0.5 0.4 0.1
v -0.5 0.5 0.1
v -0.5 0.6 0.1
v -0.4 -0.2 0.1
v -0.4 -0.1 0.1
v -0.4 0 0.1
v -0.4 0.1 0.1
v 0.4 -0.2 0.1
v 0.4 -0.1 0.1
v 0.4 0 0.1
v 0.4 0.1 0.1
v 0.5 -0.2 0.1
v 0.5 -0.1 0.1
v 0.5 0 0.1
v 0.5 0.1 0.1
v 0.5 0.4 0.1
v 0.5 0.5 0.1
v 0.5 0.6 0.1
v 0.6 0.4 0.1
v 0.6 0.5 0.1
v 0.6 0.6 0.1
v -0.7 0.4 0
v -0.7 0.5 0
v -0.7 0.6 0
v -0.6 0.3 0
v -0.6 0.4 0
v -0.6 0.5 0
v -0.6 0.6 0
v -0.6 0.9 0
v -0.6 1 0
v -0.5 -0.1 0
v -0.5 0 0
v -0.5 0.3 0
v -0.5 0.4 0
v -0.5 0.6 0
v -0.5 0.9 0
v -0.5 1 0
v -0.4 -0.1 0
v -0.4 0 0
v 0.4 -0.1 0
v 0.4 0 0
v 0.5 -0.1 0
v 0.5 0 0
v 0.5 0.3 0
v 0.5 0.4 0
v 0.5 0.6 0
v 0.5 0.9 0
v 0.5 1 0
v 0.6 0.3 0
v 0.6 0.4 0
v 0.6 0.5 0
v 0.6 0.6 0
v 0.6 0.9 0
v 0.6 1 0
v 0.7 0.4 0
v 0.7 0.5 0
v 0.7 0.6 0
v -0.7 0.4 -0.1
v -0.7 0.5 -0.1
v -0.7 0.6 -0.1
v -0.6 0.3 -0.1
v -0.6 0.4 -0.1
v -0.6 0.5 -0.1
v -0.6 0.6 -0.1
v -0.6 0.9 -0.1
v -0.6 1 -0.1
v -0.5 0.3 -0.1
v -0.5 0.4 -0.1
v -0.5 0.6 -0.1
v -0.5 0.9 -0.1
v -0.5 1 -0.1
v 0.5 0.3 -0.1
v 0.5 0.4 -0.1
v 0.5 0.6 -0.1
v 0.5 0.9 -0.1
v 0.5 1 -0.1
v 0.6 0.3 -0.1
v 0.6 0.4 -0.1
v 0.6 0.5 -0.1
v 0.6 0.6 -0.1
v 0.6 0.9 -0.1
v 0.6 1 -0.1
v 0.7 0.4 -0.1
v 0.7 0.5 -0.1
v 0.7 0.6 -0.1
v -0.6 0.4 -0.2
v -0.6 0.5 -0.2
v -0.6 0.6 -0.2
v -0.5 0.4 -0.2
v -0.5 0.5 -0.2
v -0.5 0.6 -0.2
v 0.5 0.4 -0.2
v 0.5 0.5 -0.2
v 0.5 0.6 -0.2
v 0.6 0.4 -0.2
v 0.6 0.5 -0.2
v 0.6 0.6 -0.2
v -0.5 -1 -0.3
v -0.5 0.6 -0.3
v -0.4 -0.9 -0.3
v -0.4 0.5 -0.3
v 0.4 -0.9 -0.3
v 0.4 0.5 -0.3
v 0.5 -1 -0.3
v 0.5 0.6 -0.3
v -0.5 -1 0.2
v 0.5 -1 0.2
v -0.4 -1 0.1
v 0.4 -1 0.1
v -0.4 -1 -0.2
v 0.4 -1 -0.2
v -0.5 -1 -0.3
v 0.5 -1 -0.3
v -0.2 -0.8 0.3
v 0.2 -0.8 0.3
v -0.2 -0.8 0.2
v 0.2 -0.8 0.2
v -0.3 -0.7 0.3
v -0.2 -0.7 0.3
v 0.2 -0.7 0.3
v 0.3 -0.7 0.3
v -0.3 -0.7 0.2
v -0.2 -0.7 0.2
v 0.2 -0.7 0.2
v 0.3 -0.7 0.2
v -0.4 0 0.2
v 0.4 0 0.2
v -0.5 0 0.1
v -0.4 0 0.1
v 0.4 0 0.1
v 0.5 0 0.1
v -0.5 0 0
v -0.4 0 0
v 0.4 0 0
v 0.5 0 0
v -0.5 0.1 0.2
v -0.4 0.1 0.2
v 0.4 0.1 0.2
v 0.5 0.1 0.2
v -0.5 0.1 0.1
v -0.4 0.1 0.1
v 0.4 0.1 0.1
v 0.5 0.1 0.1
v -0.6 0.3 0
v -0.5 0.3 0
v 0.5 0.3 0
v 0.6 0.3 0
v -0.6 0.3 -0.1
v -0.5 0.3 -0.1
v 0.5 0.3 -0.1
v 0.6 0.3 -0.1
v -0.6 0.4 0.1
v -0.5 0.4 0.1
v 0.5 0.4 0.1
v 0.6 0.4 0.1
v -0.7 0.4 0
v -0.6 0.4 0
v -0.5 0.4 0
v 0.5 0.4 0
v 0.6 0.4 0
v 0.7 0.4 0
v -0.7 0.4 -0.1
v -0.6 0.4 -0.1
v -0.5 0.4 -0.1
v 0.5 0.4 -0.1
v 0.6 0.4 -0.1
v 0.7 0.4 -0.1
v -0.6 0.4 -0.2
v -0.5 0.4 -0.2
v 0.5 0.4 -0.2
v 0.6 0.4 -0.2
v -0.3 -0.5 0.3
v -0.2 -0.5 0.3
v 0.2 -0.5 0.3
v 0.3 -0.5 0.3
v -0.3 -0.5 0.2
v -0.2 -0.5 0.2
v 0.2 -0.5 0.2
v 0.3 -0.5 0.2
v -0.2 -0.4 0.3
v 0.2 -0.4 0.3
v -0.2 -0.4 0.2
v 0.2 -0.4 0.2
v -0.5 -0.2 0.2
v -0.4 -0.2 0.2
v 0.4 -0.2 0.2
v 0.5 -0.2 0.2
v -0.5 -0.2 0.1
v -0.4 -0.2 0.1
v 0.4 -0.2 0.1
v 0.5 -0.2 0.1
v -0.4 -0.1 0.2
v 0.4 -0.1 0.2
v -0.5 -0.1 0.1
v -0.4 -0.1 0.1
v 0.4 -0.1 0.1
v 0.5 -0.1 0.1
v -0.5 -0.1 0
v -0.4 -0.1 0
v 0.4 -0.1 0
v 0.5 -0.1 0
v -0.5 0.6 0.2
v 0.5 0.6 0.2
v -0.6 0.6 0.1
v -0.5 0.6 0.1
v 0.5 0.6 0.1
v 0.6 0.6 0.1
v -0.7 0.6 0
v -0.6 0.6 0
v -0.5 0.6 0
v 0.5 0.6 0
v 0.6 0.6 0
v 0.7 0.6 0
v -0.7 0.6 -0.1
v -0.6 0.6 -0.1
v -0.5 0.6 -0.1
v 0.5 0.6 -0.1
v 0.6 0.6 -0.1
v 0.7 0.6 -0.1
v -0.6 0.6 -0.2
v -0.5 0.6 -0.2
v 0.5 0.6 -0.2
v 0.6 0.6 -0.2
v -0.5 0.6 -0.3
v 0.5 0.6 -0.3
v -0.6 1 0
v -0.5 1 0
v 0.5 1 0
v 0.6 1 0
v -0.6 1 -0.1
v -0.5 1 -0.1
v 0.5 1 -0.1
v 0.6 1 -0.1

# faces
f 3/10/1 2/10/1 1/10/1
f 4/10/1 2/10/1 3/10/1
f 5/9/1 4/9/1 3/9/1
f 6/9/1 4/9/1 5/9/1
f 10/10/1 8/10/1 7/10/1
f 11/10/1 8/10/1 10/10/1
f 13/10/1 10/10/1 9/10/1
f 14/10/1 10/10/1 13/10/1
f 15/10/1 12/10/1 11/10/1
f 16/10/1 12/10/1 15/10/1
f 17/9/1 14/9/1 13/9/1
f 18/9/1 14/9/1 17/9/1
f 19/9/1 16/9/1 15/9/1
f 20/9/1 16/9/1 19/9/1
f 21/10/1 19/10/1 18/10/1
f 22/10/1 19/10/1 21/10/1
f 23/11/1 22/11/1 21/11/1
f 24/11/1 22/11/1 23/11/1
f 27/9/1 26/9/1 25/9/1
f 28/9/1 26/9/1 27/9/1
f 29/9/1 27/9/1 25/9/1
f 30/10/1 28/10/1 27/10/1
f 30/9/1 27/9/1 29/9/1
f 31/10/1 28/10/1 30/10/1
f 32/9/1 31/9/1 30/9/1
f 33/9/1 31/9/1 32/9/1
f 35/9/1 31/9/1 33/9/1
f 37/9/1 35/9/1 34/9/1
f 38/10/1 28/10/1 31/10/1
f 38/9/1 31/9/1 35/9/1
f 38/9/1 35/9/1 37/9/1
f 39/10/1 38/10/1 37/10/1
f 40/10/1 28/10/1 38/10/1
f 40/10/1 38/10/1 39/10/1
f 41/9/1 37/9/1 36/9/1
f 41/10/1 39/10/1 37/10/1
f 42/9/1 40/9/1 39/9/1
f 42/10/1 39/10/1 41/10/1
f 43/10/1 28/10/1 40/10/1
f 43/9/1 40/9/1 42/9/1
f 44/9/1 26/9/1 28/9/1
f 44/10/1 28/10/1 43/10/1
f 45/9/1 42/9/1 41/9/1
f 45/9/1 41/9/1 36/9/1
f 46/9/1 42/9/1 45/9/1
f 47/9/1 44/9/1 43/9/1
f 48/9/1 26/9/1 44/9/1
f 48/9/1 44/9/1 47/9/1
f 49/9/1 45/9/1 36/9/1
f 50/9/1 26/9/1 48/9/1
f 51/9/1 49/9/1 36/9/1
f 52/9/1 49/9/1 51/9/1
f 53/9/1 26/9/1 50/9/1
f 54/9/1 26/9/1 53/9/1
f 57/9/1 56/9/1 55/9/1
f 58/9/1 56/9/1 57/9/1
f 61/9/1 59/9/1 58/9/1
f 62/9/1 59/9/1 61/9/1
f 63/9/1 61/9/1 60/9/1
f 64/9/1 61/9/1 63/9/1
f 67/9/1 66/9/1 65/9/1
f 68/9/1 66/9/1 67/9/1
f 71/9/1 70/9/1 69/9/1
f 72/9/1 70/9/1 71/9/1
f 75/9/1 74/9/1 73/9/1
f 76/9/1 74/9/1 75/9/1
f 79/10/1 78/10/1 77/10/1
f 80/10/1 78/10/1 79/10/1
f 81/11/1 80/11/1 79/11/1
f 82/11/1 80/11/1 81/11/1
f 83/10/2 84/10/2 85/10/2
f 85/10/2 84/10/2 86/10/2
f 85/11/2 86/11/2 87/11/2
f 87/11/2 86/11/2 88/11/2
f 89/9/2 90/9/2 91/9/2
f 91/9/2 90/9/2 92/9/2
f 93/9/2 94/9/2 95/9/2
f 95/9/2 94/9/2 96/9/2
f 97/9/2 98/9/2 99/9/2
f 99/9/2 98/9/2 100/9/2
f 101/9/2 102/9/2 103/9/2
f 103/9/2 102/9/2 104/9/2
f 104/9/2 105/9/2 107/9/2
f 107/9/2 105/9/2 108/9/2
f 106/9/2 107/9/2 109/9/2
f 109/9/2 107/9/2 110/9/2
f 111/9/2 112/9/2 113/9/2
f 113/9/2 112/9/2 114/9/2
f 111/9/2 113/9/2 115/9/2
f 113/10/2 114/10/2 116/10/2
f 115/9/2 113/9/2 116/9/2
f 116/10/2 114/10/2 117/10/2
f 116/9/2 117/9/2 118/9/2
f 118/9/2 117/9/2 119/9/2
f 119/9/2 117/9/2 121/9/2
f 120/9/2 121/9/2 123/9/2
f 117/10/2 114/10/2 124/10/2
f 121/9/2 117/9/2 124/9/2
f 123/9/2 121/9/2 124/9/2
f 123/10/2 124/10/2 125/10/2
f 124/10/2 114/10/2 126/10/2
f 125/10/2 124/10/2 126/10/2
f 122/9/2 123/9/2 127/9/2
f 123/10/2 125/10/2 127/10/2
f 125/9/2 126/9/2 128/9/2
f 127/10/2 125/10/2 128/10/2
f 126/10/2 114/10/2 129/10/2
f 128/9/2 126/9/2 129/9/2
f 114/9/2 112/9/2 130/9/2
f 129/10/2 114/10/2 130/10/2
f 127/9/2 128/9/2 131/9/2
f 122/9/2 127/9/2 131/9/2
f 131/9/2 128/9/2 132/9/2
f 129/9/2 130/9/2 133/9/2
f 130/9/2 112/9/2 134/9/2
f 133/9/2 130/9/2 134/9/2
f 122/9/2 131/9/2 135/9/2
f 134/9/2 112/9/2 136/9/2
f 122/9/2 135/9/2 137/9/2
f 137/9/2 135/9/2 138/9/2
f 136/9/2 112/9/2 139/9/2
f 139/9/2 112/9/2 140/9/2
f 141/10/2 142/10/2 144/10/2
f 144/10/2 142/10/2 145/10/2
f 143/10/2 144/10/2 147/10/2
f 147/10/2 144/10/2 148/10/2
f 145/10/2 146/10/2 149/10/2
f 149/10/2 146/10/2 150/10/2
f 147/9/2 148/9/2 151/9/2
f 151/9/2 148/9/2 152/9/2
f 149/9/2 150/9/2 153/9/2
f 153/9/2 150/9/2 154/9/2
f 152/10/2 153/10/2 155/10/2
f 155/10/2 153/10/2 156/10/2
f 155/11/2 156/11/2 157/11/2
f 157/11/2 156/11/2 158/11/2
f 159/10/2 160/10/2 161/10/2
f 161/10/2 160/10/2 162/10/2
f 161/9/2 162/9/2 163/9/2
f 163/9/2 162/9/2 164/9/2
f 168/9/3 166/9/3 165/9/3
f 169/9/3 166/9/3 168/9/3
f 170/9/3 166/9/3 169/9/3
f 172/9/3 168/9/3 167/9/3
f 172/9/3 169/9/3 168/9/3
f 172/1/3 170/1/3 169/1/3
f 173/9/3 171/9/3 170/9/3
f 173/1/3 170/1/3 172/1/3
f 174/9/3 172/9/3 167/9/3
f 174/2/3 173/2/3 172/2/3
f 175/9/3 171/9/3 173/9/3
f 175/2/3 173/2/3 174/2/3
f 176/9/3 174/9/3 167/9/3
f 176/3/3 175/3/3 174/3/3
f 177/9/3 171/9/3 175/9/3
f 177/3/3 175/3/3 176/3/3
f 178/9/3 176/9/3 167/9/3
f 179/9/3 176/9/3 178/9/3
f 180/4/3 177/4/3 176/4/3
f 180/9/3 176/9/3 179/9/3
f 181/9/3 171/9/3 177/9/3
f 181/4/3 177/4/3 180/4/3
f 182/9/3 171/9/3 181/9/3
f 183/9/3 180/9/3 179/9/3
f 183/9/3 181/9/3 180/9/3
f 184/9/3 181/9/3 183/9/3
f 189/9/3 186/9/3 185/9/3
f 190/9/3 186/9/3 189/9/3
f 193/9/3 188/9/3 187/9/3
f 194/9/3 188/9/3 193/9/3
f 195/10/3 190/10/3 189/10/3
f 196/10/3 190/10/3 195/10/3
f 197/10/3 194/10/3 193/10/3
f 198/10/3 194/10/3 197/10/3
f 199/10/3 195/10/3 189/10/3
f 200/10/3 195/10/3 199/10/3
f 201/10/3 190/10/3 196/10/3
f 202/10/3 190/10/3 201/10/3
f 203/1/3 198/1/3 197/1/3
f 203/10/3 197/10/3 193/10/3
f 204/10/3 194/10/3 198/10/3
f 204/1/3 198/1/3 203/1/3
f 205/10/3 203/10/3 193/10/3
f 205/2/3 204/2/3 203/2/3
f 206/10/3 194/10/3 204/10/3
f 206/2/3 204/2/3 205/2/3
f 207/10/3 205/10/3 193/10/3
f 207/10/3 206/10/3 205/10/3
f 208/10/3 206/10/3 207/10/3
f 209/10/3 194/10/3 206/10/3
f 209/10/3 206/10/3 208/10/3
f 210/10/3 199/10/3 189/10/3
f 213/10/3 190/10/3 202/10/3
f 214/7/3 208/7/3 207/7/3
f 214/10/3 207/10/3 193/10/3
f 215/5/3 209/5/3 208/5/3
f 215/7/3 208/7/3 214/7/3
f 216/10/3 194/10/3 209/10/3
f 216/5/3 209/5/3 215/5/3
f 217/10/3 211/10/3 210/10/3
f 218/10/3 213/10/3 212/10/3
f 219/8/3 215/8/3 214/8/3
f 219/10/3 214/10/3 193/10/3
f 220/6/3 216/6/3 215/6/3
f 220/8/3 215/8/3 219/8/3
f 221/10/3 194/10/3 216/10/3
f 221/6/3 216/6/3 220/6/3
f 222/9/3 189/9/3 185/9/3
f 222/10/3 217/10/3 210/10/3
f 222/10/3 218/10/3 217/10/3
f 222/10/3 210/10/3 189/10/3
f 223/9/3 191/9/3 190/9/3
f 223/10/3 218/10/3 222/10/3
f 223/10/3 190/10/3 213/10/3
f 223/10/3 213/10/3 218/10/3
f 224/9/3 191/9/3 223/9/3
f 225/9/3 193/9/3 192/9/3
f 226/10/3 221/10/3 220/10/3
f 226/9/3 193/9/3 225/9/3
f 226/10/3 220/10/3 219/10/3
f 226/10/3 219/10/3 193/10/3
f 227/10/3 194/10/3 221/10/3
f 227/10/3 221/10/3 226/10/3
f 227/9/3 188/9/3 194/9/3
f 228/9/3 222/9/3 185/9/3
f 228/9/3 223/9/3 222/9/3
f 229/9/3 223/9/3 228/9/3
f 230/9/3 227/9/3 226/9/3
f 231/9/3 188/9/3 227/9/3
f 231/9/3 227/9/3 230/9/3
f 239/10/3 233/10/3 232/10/3
f 240/9/3 234/9/3 233/9/3
f 240/10/3 233/10/3 239/10/3
f 241/9/3 234/9/3 240/9/3
f 242/9/3 236/9/3 235/9/3
f 243/9/3 236/9/3 242/9/3
f 244/9/3 238/9/3 237/9/3
f 245/9/3 238/9/3 244/9/3
f 247/9/3 244/9/3 243/9/3
f 248/9/3 244/9/3 247/9/3
f 250/9/3 247/9/3 246/9/3
f 251/9/3 247/9/3 250/9/3
f 252/9/3 249/9/3 248/9/3
f 253/9/3 249/9/3 252/9/3
f 257/10/3 255/10/3 254/10/3
f 258/9/3 256/9/3 255/9/3
f 258/10/3 255/10/3 257/10/3
f 259/9/3 256/9/3 258/9/3
f 264/10/3 261/10/3 260/10/3
f 265/9/3 262/9/3 261/9/3
f 265/10/3 261/10/3 264/10/3
f 266/9/3 262/9/3 265/9/3
f 271/10/3 264/10/3 263/10/3
f 272/10/3 264/10/3 271/10/3
f 273/10/3 267/10/3 266/10/3
f 274/11/3 268/11/3 267/11/3
f 274/10/3 267/10/3 273/10/3
f 275/11/3 268/11/3 274/11/3
f 276/9/3 270/9/3 269/9/3
f 277/9/3 270/9/3 276/9/3
f 280/9/3 279/9/3 278/9/3
f 281/9/3 279/9/3 280/9/3
f 287/10/3 283/10/3 282/10/3
f 288/10/3 283/10/3 287/10/3
f 290/10/3 285/10/3 284/10/3
f 291/11/3 286/11/3 285/11/3
f 291/10/3 285/10/3 290/10/3
f 292/11/3 286/11/3 291/11/3
f 293/10/3 289/10/3 288/10/3
f 294/9/3 290/9/3 289/9/3
f 294/10/3 289/10/3 293/10/3
f 295/9/3 290/9/3 294/9/3
f 296/10/4 297/10/4 300/10/4
f 297/9/4 298/9/4 301/9/4
f 300/10/4 297/10/4 301/10/4
f 301/9/4 298/9/4 302/9/4
f 299/10/4 300/10/4 305/10/4
f 305/10/4 300/10/4 306/10/4
f 302/10/4 303/10/4 307/10/4
f 303/11/4 304/11/4 308/11/4
f 307/10/4 303/10/4 308/10/4
f 308/11/4 304/11/4 309/11/4
f 310/10/4 311/10/4 315/10/4
f 315/10/4 311/10/4 316/10/4
f 312/10/4 313/10/4 318/10/4
f 313/11/4 314/11/4 319/11/4
f 318/10/4 313/10/4 319/10/4
f 319/11/4 314/11/4 320/11/4
f 316/10/4 317/10/4 321/10/4
f 317/9/4 318/9/4 322/9/4
f 321/10/4 317/10/4 322/10/4
f 322/9/4 318/9/4 323/9/4
f 324/10/4 325/10/4 327/10/4
f 325/9/4 326/9/4 328/9/4
f 327/10/4 325/10/4 328/10/4
f 328/9/4 326/9/4 329/9/4
f 330/10/4 331/10/4 333/10/4
f 331/9/4 332/9/4 334/9/4
f 333/10/4 331/10/4 334/10/4
f 334/9/4 332/9/4 335/9/4
f 336/9/4 337/9/4 338/9/4
f 338/9/4 337/9/4 339/9/4
f 336/9/4 338/9/4 340/9/4
f 338/10/4 339/10/4 340/10/4
f 339/9/4 337/9/4 341/9/4
f 340/10/4 339/10/4 341/10/4
f 336/9/4 340/9/4 342/9/4
f 340/9/4 341/9/4 342/9/4
f 341/9/4 337/9/4 343/9/4
f 342/9/4 341/9/4 343/9/4
f 346/9/5 345/9/5 344/9/5
f 347/9/5 345/9/5 346/9/5
f 348/9/5 346/9/5 344/9/5
f 348/10/5 347/10/5 346/10/5
f 349/9/5 345/9/5 347/9/5
f 349/10/5 347/10/5 348/10/5
f 350/9/5 348/9/5 344/9/5
f 350/9/5 349/9/5 348/9/5
f 351/9/5 345/9/5 349/9/5
f 351/9/5 349/9/5 350/9/5
f 354/9/5 353/9/5 352/9/5
f 355/9/5 353/9/5 354/9/5
f 360/9/5 357/9/5 356/9/5
f 361/9/5 357/9/5 360/9/5
f 362/9/5 359/9/5 358/9/5
f 363/9/5 359/9/5 362/9/5
f 367/9/5 365/9/5 364/9/5
f 368/9/5 365/9/5 367/9/5
f 370/9/5 367/9/5 366/9/5
f 371/9/5 367/9/5 370/9/5
f 372/9/5 369/9/5 368/9/5
f 373/9/5 369/9/5 372/9/5
f 378/9/5 375/9/5 374/9/5
f 379/9/5 375/9/5 378/9/5
f 380/9/5 377/9/5 376/9/5
f 381/9/5 377/9/5 380/9/5
f 386/10/5 383/10/5 382/10/5
f 387/10/5 383/10/5 386/10/5
f 388/10/5 385/10/5 384/10/5
f 389/10/5 385/10/5 388/10/5
f 395/10/5 391/10/5 390/10/5
f 396/10/5 391/10/5 395/10/5
f 397/10/5 393/10/5 392/10/5
f 398/10/5 393/10/5 397/10/5
f 400/10/5 395/10/5 394/10/5
f 401/10/5 395/10/5 400/10/5
f 404/10/5 399/10/5 398/10/5
f 405/10/5 399/10/5 404/10/5
f 406/10/5 402/10/5 401/10/5
f 407/10/5 402/10/5 406/10/5
f 408/10/5 404/10/5 403/10/5
f 409/10/5 404/10/5 408/10/5
f 410/9/6 411/9/6 414/9/6
f 414/9/6 411/9/6 415/9/6
f 412/9/6 413/9/6 416/9/6
f 416/9/6 413/9/6 417/9/6
f 418/9/6 419/9/6 420/9/6
f 420/9/6 419/9/6 421/9/6
f 422/9/6 423/9/6 426/9/6
f 426/9/6 423/9/6 427/9/6
f 424/9/6 425/9/6 428/9/6
f 428/9/6 425/9/6 429/9/6
f 430/9/6 431/9/6 433/9/6
f 433/9/6 431/9/6 434/9/6
f 432/9/6 433/9/6 436/9/6
f 436/9/6 433/9/6 437/9/6
f 434/9/6 435/9/6 438/9/6
f 438/9/6 435/9/6 439/9/6
f 440/9/6 441/9/6 443/9/6
f 443/9/6 441/9/6 444/9/6
f 442/9/6 443/9/6 447/9/6
f 443/10/6 444/10/6 448/10/6
f 447/9/6 443/9/6 448/9/6
f 444/9/6 445/9/6 449/9/6
f 448/10/6 444/10/6 449/10/6
f 449/9/6 445/9/6 450/9/6
f 446/9/6 447/9/6 452/9/6
f 452/9/6 447/9/6 453/9/6
f 448/10/6 449/10/6 454/10/6
f 454/10/6 449/10/6 455/10/6
f 450/9/6 451/9/6 456/9/6
f 456/9/6 451/9/6 457/9/6
f 453/9/6 454/9/6 458/9/6
f 454/10/6 455/10/6 459/10/6
f 458/9/6 454/9/6 459/9/6
f 455/9/6 456/9/6 460/9/6
f 459/10/6 455/10/6 460/10/6
f 460/9/6 456/9/6 461/9/6
f 459/9/6 460/9/6 462/9/6
f 462/9/6 460/9/6 463/9/6
f 464/11/6 465/11/6 468/11/6
f 468/11/6 465/11/6 469/11/6
f 466/11/6 467/11/6 470/11/6
f 470/11/6 467/11/6 471/11/6
