# MagicaVoxel @ Ephtracy

# group
o 

# material
mtllib Radist-4.mtl
usemtl palette

# normals
vn -1 0 0
vn 1 0 0
vn 0 0 1
vn 0 0 -1
vn 0 -1 0
vn 0 1 0

# texcoords
vt 0.00195312 0.5
vt 0.0722656 0.5
vt 0.916016 0.5
vt 0.919922 0.5
vt 0.923828 0.5
vt 0.927734 0.5

# verts
v -0.5 -0.3 0.3
v -0.5 -0.3 -0.3
v -0.5 -0.3 -0.4
v -0.5 -0.2 0.4
v -0.5 -0.2 0.3
v -0.5 -0.2 0.1
v -0.5 -0.2 -0.1
v -0.5 -0.2 -0.2
v -0.5 -0.2 -0.3
v -0.5 -0.2 -0.4
v -0.5 0.1 -0.2
v -0.5 0.1 -0.3
v -0.5 0.1 -0.4
v -0.5 0.2 -0.3
v -0.5 0.2 -0.4
v -0.5 0.3 0.4
v -0.5 0.3 0.1
v -0.5 0.3 -0.1
v -0.5 0.3 -0.4
v -0.4 -0.4 0.3
v -0.4 -0.4 -0.3
v -0.4 -0.3 0.4
v -0.4 -0.3 0.3
v -0.4 -0.3 -0.3
v -0.4 -0.2 0.5
v -0.4 -0.2 0.4
v -0.4 -0.2 0.3
v -0.4 -0.2 -0.3
v -0.4 -0.2 -0.4
v -0.4 0.1 -0.3
v -0.4 0.1 -0.4
v -0.4 0.1 -0.5
v -0.4 0.2 -0.4
v -0.4 0.2 -0.5
v -0.4 0.3 0.5
v -0.4 0.3 0.4
v -0.4 0.3 0.1
v -0.4 0.3 -0.1
v -0.4 0.3 -0.4
v -0.4 0.3 -0.5
v -0.4 0.4 0.4
v -0.4 0.4 0.1
v -0.4 0.4 -0.1
v -0.4 0.4 -0.4
v -0.3 -0.4 0.4
v -0.3 -0.4 0.3
v -0.3 -0.4 -0.3
v -0.3 -0.4 -0.4
v -0.3 -0.3 0.5
v -0.3 -0.3 0.4
v -0.3 -0.3 0.3
v -0.3 -0.3 -0.3
v -0.3 -0.3 -0.4
v -0.3 -0.2 0.5
v -0.3 -0.2 0.4
v -0.3 0.3 0.5
v -0.3 0.3 0.4
v -0.3 0.3 -0.4
v -0.3 0.3 -0.5
v -0.3 0.4 0.5
v -0.3 0.4 0.4
v -0.3 0.4 0.1
v -0.3 0.4 -0.1
v -0.3 0.4 -0.4
v -0.3 0.4 -0.5
v -0.3 0.5 0.4
v -0.3 0.5 0.1
v -0.3 0.5 -0.1
v -0.3 0.5 -0.4
v 0.1 -0.4 -0.3
v 0.1 -0.4 -0.4
v 0.1 -0.3 -0.3
v 0.1 -0.3 -0.4
v 0.3 0.1 -0.4
v 0.3 0.1 -0.5
v 0.3 0.2 -0.4
v 0.3 0.2 -0.5
v -0.3 0.1 -0.4
v -0.3 0.1 -0.5
v -0.3 0.2 -0.4
v -0.3 0.2 -0.5
v -0.1 -0.4 -0.3
v -0.1 -0.4 -0.4
v -0.1 -0.3 -0.3
v -0.1 -0.3 -0.4
v 0.3 -0.4 0.4
v 0.3 -0.4 0.3
v 0.3 -0.4 -0.3
v 0.3 -0.4 -0.4
v 0.3 -0.3 0.5
v 0.3 -0.3 0.4
v 0.3 -0.3 0.3
v 0.3 -0.3 -0.3
v 0.3 -0.3 -0.4
v 0.3 -0.2 0.5
v 0.3 -0.2 0.4
v 0.3 0.3 0.5
v 0.3 0.3 0.4
v 0.3 0.3 -0.4
v 0.3 0.3 -0.5
v 0.3 0.4 0.5
v 0.3 0.4 0.4
v 0.3 0.4 0.1
v 0.3 0.4 -0.1
v 0.3 0.4 -0.4
v 0.3 0.4 -0.5
v 0.3 0.5 0.4
v 0.3 0.5 0.1
v 0.3 0.5 -0.1
v 0.3 0.5 -0.4
v 0.4 -0.4 0.3
v 0.4 -0.4 0.1
v 0.4 -0.4 -0.1
v 0.4 -0.4 -0.3
v 0.4 -0.3 0.4
v 0.4 -0.3 0.3
v 0.4 -0.3 0.1
v 0.4 -0.3 -0.1
v 0.4 -0.3 -0.3
v 0.4 -0.2 0.5
v 0.4 -0.2 0.4
v 0.4 -0.2 0.3
v 0.4 -0.2 -0.3
v 0.4 -0.2 -0.4
v 0.4 0.1 -0.3
v 0.4 0.1 -0.4
v 0.4 0.1 -0.5
v 0.4 0.2 -0.4
v 0.4 0.2 -0.5
v 0.4 0.3 0.5
v 0.4 0.3 0.4
v 0.4 0.3 0.1
v 0.4 0.3 -0.1
v 0.4 0.3 -0.4
v 0.4 0.3 -0.5
v 0.4 0.4 0.4
v 0.4 0.4 0.1
v 0.4 0.4 -0.1
v 0.4 0.4 -0.4
v 0.5 -0.3 0.3
v 0.5 -0.3 -0.3
v 0.5 -0.3 -0.4
v 0.5 -0.2 0.4
v 0.5 -0.2 0.3
v 0.5 -0.2 0.1
v 0.5 -0.2 -0.1
v 0.5 -0.2 -0.2
v 0.5 -0.2 -0.3
v 0.5 -0.2 -0.4
v 0.5 0.1 -0.2
v 0.5 0.1 -0.3
v 0.5 0.1 -0.4
v 0.5 0.2 -0.3
v 0.5 0.2 -0.4
v 0.5 0.3 0.4
v 0.5 0.3 0.1
v 0.5 0.3 -0.1
v 0.5 0.3 -0.4
v -0.4 -0.2 0.5
v -0.4 0.3 0.5
v -0.3 -0.3 0.5
v -0.3 -0.2 0.5
v -0.3 0.3 0.5
v -0.3 0.4 0.5
v 0.3 -0.3 0.5
v 0.3 -0.2 0.5
v 0.3 0.3 0.5
v 0.3 0.4 0.5
v 0.4 -0.2 0.5
v 0.4 0.3 0.5
v -0.5 -0.2 0.4
v -0.5 0.3 0.4
v -0.4 -0.3 0.4
v -0.4 -0.2 0.4
v -0.4 0.3 0.4
v -0.4 0.4 0.4
v -0.3 -0.4 0.4
v -0.3 -0.3 0.4
v -0.3 -0.2 0.4
v -0.3 0.3 0.4
v -0.3 0.4 0.4
v -0.3 0.5 0.4
v 0.3 -0.4 0.4
v 0.3 -0.3 0.4
v 0.3 -0.2 0.4
v 0.3 0.3 0.4
v 0.3 0.4 0.4
v 0.3 0.5 0.4
v 0.4 -0.3 0.4
v 0.4 -0.2 0.4
v 0.4 0.3 0.4
v 0.4 0.4 0.4
v 0.5 -0.2 0.4
v 0.5 0.3 0.4
v -0.5 -0.3 0.3
v -0.5 -0.2 0.3
v -0.4 -0.4 0.3
v -0.4 -0.3 0.3
v -0.4 -0.2 0.3
v -0.3 -0.4 0.3
v -0.3 -0.3 0.3
v 0.3 -0.4 0.3
v 0.3 -0.3 0.3
v 0.4 -0.4 0.3
v 0.4 -0.3 0.3
v 0.4 -0.2 0.3
v 0.5 -0.3 0.3
v 0.5 -0.2 0.3
v -0.5 -0.2 -0.3
v -0.5 0.1 -0.3
v -0.4 -0.4 -0.3
v -0.4 -0.3 -0.3
v -0.4 -0.2 -0.3
v -0.4 0.1 -0.3
v -0.3 -0.4 -0.3
v -0.3 -0.3 -0.3
v -0.1 -0.4 -0.3
v -0.1 -0.3 -0.3
v 0.1 -0.4 -0.3
v 0.1 -0.3 -0.3
v 0.3 -0.4 -0.3
v 0.3 -0.3 -0.3
v 0.4 -0.4 -0.3
v 0.4 -0.3 -0.3
v 0.4 -0.2 -0.3
v 0.4 0.1 -0.3
v 0.5 -0.2 -0.3
v 0.5 0.1 -0.3
v -0.5 -0.3 -0.4
v -0.5 -0.2 -0.4
v -0.5 0.1 -0.4
v -0.5 0.2 -0.4
v -0.5 0.3 -0.4
v -0.4 -0.2 -0.4
v -0.4 0.1 -0.4
v -0.4 0.2 -0.4
v -0.4 0.3 -0.4
v -0.4 0.4 -0.4
v -0.3 -0.4 -0.4
v -0.3 -0.3 -0.4
v -0.3 -0.2 -0.4
v -0.3 -0.1 -0.4
v -0.3 0.1 -0.4
v -0.3 0.2 -0.4
v -0.3 0.3 -0.4
v -0.3 0.4 -0.4
v -0.3 0.5 -0.4
v -0.2 -0.4 -0.4
v -0.2 -0.3 -0.4
v -0.1 -0.4 -0.4
v -0.1 -0.3 -0.4
v -0.1 -0.1 -0.4
v -0.1 0.2 -0.4
v -0.1 0.4 -0.4
v -0.1 0.5 -0.4
v 0.1 -0.4 -0.4
v 0.1 -0.3 -0.4
v 0.1 -0.1 -0.4
v 0.1 0.2 -0.4
v 0.1 0.4 -0.4
v 0.1 0.5 -0.4
v 0.2 -0.4 -0.4
v 0.2 -0.3 -0.4
v 0.3 -0.4 -0.4
v 0.3 -0.3 -0.4
v 0.3 -0.2 -0.4
v 0.3 -0.1 -0.4
v 0.3 0.1 -0.4
v 0.3 0.2 -0.4
v 0.3 0.3 -0.4
v 0.3 0.4 -0.4
v 0.3 0.5 -0.4
v 0.4 -0.2 -0.4
v 0.4 0.1 -0.4
v 0.4 0.2 -0.4
v 0.4 0.3 -0.4
v 0.4 0.4 -0.4
v 0.5 -0.3 -0.4
v 0.5 -0.2 -0.4
v 0.5 0.1 -0.4
v 0.5 0.2 -0.4
v 0.5 0.3 -0.4
v -0.4 0.1 -0.5
v -0.4 0.2 -0.5
v -0.4 0.3 -0.5
v -0.3 0.1 -0.5
v -0.3 0.2 -0.5
v -0.3 0.3 -0.5
v -0.3 0.4 -0.5
v -0.1 0.3 -0.5
v -0.1 0.4 -0.5
v 0.1 0.3 -0.5
v 0.1 0.4 -0.5
v 0.3 0.1 -0.5
v 0.3 0.2 -0.5
v 0.3 0.3 -0.5
v 0.3 0.4 -0.5
v 0.4 0.1 -0.5
v 0.4 0.2 -0.5
v 0.4 0.3 -0.5
v -0.3 -0.4 0.4
v 0.3 -0.4 0.4
v -0.4 -0.4 0.3
v -0.3 -0.4 0.3
v -0.2 -0.4 0.3
v 0.2 -0.4 0.3
v 0.3 -0.4 0.3
v 0.4 -0.4 0.3
v -0.3 -0.4 0.2
v -0.2 -0.4 0.2
v 0.2 -0.4 0.2
v 0.3 -0.4 0.2
v -0.3 -0.4 0.1
v -0.2 -0.4 0.1
v -0.1 -0.4 0.1
v 0.1 -0.4 0.1
v 0.3 -0.4 0.1
v 0.4 -0.4 0.1
v -0.3 -0.4 -0.1
v -0.2 -0.4 -0.1
v -0.1 -0.4 -0.1
v 0.1 -0.4 -0.1
v 0.3 -0.4 -0.1
v 0.4 -0.4 -0.1
v -0.3 -0.4 -0.2
v -0.2 -0.4 -0.2
v 0.2 -0.4 -0.2
v 0.3 -0.4 -0.2
v -0.4 -0.4 -0.3
v -0.3 -0.4 -0.3
v -0.2 -0.4 -0.3
v -0.1 -0.4 -0.3
v 0.1 -0.4 -0.3
v 0.2 -0.4 -0.3
v 0.3 -0.4 -0.3
v 0.4 -0.4 -0.3
v -0.3 -0.4 -0.4
v -0.2 -0.4 -0.4
v -0.1 -0.4 -0.4
v 0.1 -0.4 -0.4
v 0.2 -0.4 -0.4
v 0.3 -0.4 -0.4
v -0.3 -0.3 0.5
v 0.3 -0.3 0.5
v -0.4 -0.3 0.4
v -0.3 -0.3 0.4
v 0.3 -0.3 0.4
v 0.4 -0.3 0.4
v -0.5 -0.3 0.3
v -0.4 -0.3 0.3
v -0.3 -0.3 0.3
v 0.3 -0.3 0.3
v 0.4 -0.3 0.3
v 0.5 -0.3 0.3
v 0.4 -0.3 0.1
v 0.4 -0.3 -0.1
v -0.5 -0.3 -0.3
v -0.4 -0.3 -0.3
v -0.3 -0.3 -0.3
v -0.1 -0.3 -0.3
v 0.1 -0.3 -0.3
v 0.3 -0.3 -0.3
v 0.4 -0.3 -0.3
v 0.5 -0.3 -0.3
v -0.5 -0.3 -0.4
v -0.3 -0.3 -0.4
v -0.1 -0.3 -0.4
v 0.1 -0.3 -0.4
v 0.3 -0.3 -0.4
v 0.5 -0.3 -0.4
v -0.4 -0.2 0.5
v -0.3 -0.2 0.5
v 0.3 -0.2 0.5
v 0.4 -0.2 0.5
v -0.5 -0.2 0.4
v -0.4 -0.2 0.4
v -0.3 -0.2 0.4
v 0.3 -0.2 0.4
v 0.4 -0.2 0.4
v 0.5 -0.2 0.4
v -0.5 -0.2 0.3
v -0.4 -0.2 0.3
v 0.4 -0.2 0.3
v 0.5 -0.2 0.3
v -0.5 0.1 -0.3
v -0.4 0.1 -0.3
v 0.4 0.1 -0.3
v 0.5 0.1 -0.3
v -0.5 0.1 -0.4
v -0.4 0.1 -0.4
v -0.3 0.1 -0.4
v 0.3 0.1 -0.4
v 0.4 0.1 -0.4
v 0.5 0.1 -0.4
v -0.4 0.1 -0.5
v -0.3 0.1 -0.5
v 0.3 0.1 -0.5
v 0.4 0.1 -0.5
v -0.3 0.2 -0.4
v -0.1 0.2 -0.4
v 0.1 0.2 -0.4
v 0.3 0.2 -0.4
v -0.3 0.2 -0.5
v 0.3 0.2 -0.5
v -0.5 -0.2 -0.3
v -0.4 -0.2 -0.3
v 0.4 -0.2 -0.3
v 0.5 -0.2 -0.3
v -0.5 -0.2 -0.4
v -0.4 -0.2 -0.4
v 0.4 -0.2 -0.4
v 0.5 -0.2 -0.4
v -0.4 0.3 0.5
v -0.3 0.3 0.5
v 0.3 0.3 0.5
v 0.4 0.3 0.5
v -0.5 0.3 0.4
v -0.4 0.3 0.4
v -0.3 0.3 0.4
v 0.3 0.3 0.4
v 0.4 0.3 0.4
v 0.5 0.3 0.4
v -0.5 0.3 0.1
v -0.4 0.3 0.1
v 0.4 0.3 0.1
v 0.5 0.3 0.1
v -0.5 0.3 -0.1
v -0.4 0.3 -0.1
v 0.4 0.3 -0.1
v 0.5 0.3 -0.1
v -0.5 0.3 -0.4
v -0.4 0.3 -0.4
v -0.3 0.3 -0.4
v 0.3 0.3 -0.4
v 0.4 0.3 -0.4
v 0.5 0.3 -0.4
v -0.4 0.3 -0.5
v -0.3 0.3 -0.5
v 0.3 0.3 -0.5
v 0.4 0.3 -0.5
v -0.3 0.4 0.5
v 0.3 0.4 0.5
v -0.4 0.4 0.4
v -0.3 0.4 0.4
v 0.3 0.4 0.4
v 0.4 0.4 0.4
v -0.4 0.4 0.1
v -0.3 0.4 0.1
v 0.3 0.4 0.1
v 0.4 0.4 0.1
v -0.4 0.4 -0.1
v -0.3 0.4 -0.1
v 0.3 0.4 -0.1
v 0.4 0.4 -0.1
v -0.4 0.4 -0.4
v -0.3 0.4 -0.4
v -0.1 0.4 -0.4
v 0.1 0.4 -0.4
v 0.3 0.4 -0.4
v 0.4 0.4 -0.4
v -0.3 0.4 -0.5
v -0.1 0.4 -0.5
v 0.1 0.4 -0.5
v 0.3 0.4 -0.5
v -0.3 0.5 0.4
v 0.3 0.5 0.4
v -0.3 0.5 0.1
v 0.3 0.5 0.1
v -0.3 0.5 -0.1
v -0.1 0.5 -0.1
v 0.1 0.5 -0.1
v 0.3 0.5 -0.1
v -0.3 0.5 -0.4
v -0.1 0.5 -0.4
v 0.1 0.5 -0.4
v 0.3 0.5 -0.4

# faces
f 5/4/1 2/4/1 1/4/1
f 6/4/1 2/4/1 5/4/1
f 7/4/1 2/4/1 6/4/1
f 8/4/1 2/4/1 7/4/1
f 9/3/1 3/3/1 2/3/1
f 9/4/1 2/4/1 8/4/1
f 10/3/1 3/3/1 9/3/1
f 11/4/1 8/4/1 7/4/1
f 11/3/1 9/3/1 8/3/1
f 12/3/1 9/3/1 11/3/1
f 14/4/1 12/4/1 11/4/1
f 14/3/1 13/3/1 12/3/1
f 15/3/1 13/3/1 14/3/1
f 16/4/1 5/4/1 4/4/1
f 16/4/1 6/4/1 5/4/1
f 17/6/1 7/6/1 6/6/1
f 17/4/1 6/4/1 16/4/1
f 18/4/1 15/4/1 14/4/1
f 18/6/1 7/6/1 17/6/1
f 18/4/1 11/4/1 7/4/1
f 18/4/1 14/4/1 11/4/1
f 19/4/1 15/4/1 18/4/1
f 23/4/1 21/4/1 20/4/1
f 24/4/1 21/4/1 23/4/1
f 26/4/1 23/4/1 22/4/1
f 27/4/1 23/4/1 26/4/1
f 30/1/1 29/1/1 28/1/1
f 31/1/1 29/1/1 30/1/1
f 33/3/1 32/3/1 31/3/1
f 34/3/1 32/3/1 33/3/1
f 35/4/1 26/4/1 25/4/1
f 36/4/1 26/4/1 35/4/1
f 39/4/1 34/4/1 33/4/1
f 40/4/1 34/4/1 39/4/1
f 41/4/1 37/4/1 36/4/1
f 42/6/1 38/6/1 37/6/1
f 42/4/1 37/4/1 41/4/1
f 43/4/1 39/4/1 38/4/1
f 43/6/1 38/6/1 42/6/1
f 44/4/1 39/4/1 43/4/1
f 50/4/1 46/4/1 45/4/1
f 51/4/1 46/4/1 50/4/1
f 52/3/1 48/3/1 47/3/1
f 53/3/1 48/3/1 52/3/1
f 54/4/1 50/4/1 49/4/1
f 55/4/1 50/4/1 54/4/1
f 60/4/1 57/4/1 56/4/1
f 61/4/1 57/4/1 60/4/1
f 64/4/1 59/4/1 58/4/1
f 65/4/1 59/4/1 64/4/1
f 66/4/1 62/4/1 61/4/1
f 67/6/1 63/6/1 62/6/1
f 67/4/1 62/4/1 66/4/1
f 68/4/1 64/4/1 63/4/1
f 68/6/1 63/6/1 67/6/1
f 69/4/1 64/4/1 68/4/1
f 72/6/1 71/6/1 70/6/1
f 73/6/1 71/6/1 72/6/1
f 76/3/1 75/3/1 74/3/1
f 77/3/1 75/3/1 76/3/1
f 78/3/2 79/3/2 80/3/2
f 80/3/2 79/3/2 81/3/2
f 82/6/2 83/6/2 84/6/2
f 84/6/2 83/6/2 85/6/2
f 86/4/2 87/4/2 91/4/2
f 91/4/2 87/4/2 92/4/2
f 88/3/2 89/3/2 93/3/2
f 93/3/2 89/3/2 94/3/2
f 90/4/2 91/4/2 95/4/2
f 95/4/2 91/4/2 96/4/2
f 97/4/2 98/4/2 101/4/2
f 101/4/2 98/4/2 102/4/2
f 99/4/2 100/4/2 105/4/2
f 105/4/2 100/4/2 106/4/2
f 102/4/2 103/4/2 107/4/2
f 103/6/2 104/6/2 108/6/2
f 107/4/2 103/4/2 108/4/2
f 104/4/2 105/4/2 109/4/2
f 108/6/2 104/6/2 109/6/2
f 109/4/2 105/4/2 110/4/2
f 111/4/2 112/4/2 116/4/2
f 112/5/2 113/5/2 117/5/2
f 116/4/2 112/4/2 117/4/2
f 113/4/2 114/4/2 118/4/2
f 117/5/2 113/5/2 118/5/2
f 118/4/2 114/4/2 119/4/2
f 115/4/2 116/4/2 121/4/2
f 121/4/2 116/4/2 122/4/2
f 123/1/2 124/1/2 125/1/2
f 125/1/2 124/1/2 126/1/2
f 126/3/2 127/3/2 128/3/2
f 128/3/2 127/3/2 129/3/2
f 120/4/2 121/4/2 130/4/2
f 130/4/2 121/4/2 131/4/2
f 128/4/2 129/4/2 134/4/2
f 134/4/2 129/4/2 135/4/2
f 131/4/2 132/4/2 136/4/2
f 132/6/2 133/6/2 137/6/2
f 136/4/2 132/4/2 137/4/2
f 133/4/2 134/4/2 138/4/2
f 137/6/2 133/6/2 138/6/2
f 138/4/2 134/4/2 139/4/2
f 140/4/2 141/4/2 144/4/2
f 144/4/2 141/4/2 145/4/2
f 145/4/2 141/4/2 146/4/2
f 146/4/2 141/4/2 147/4/2
f 141/3/2 142/3/2 148/3/2
f 147/4/2 141/4/2 148/4/2
f 148/3/2 142/3/2 149/3/2
f 146/4/2 147/4/2 150/4/2
f 147/3/2 148/3/2 150/3/2
f 150/3/2 148/3/2 151/3/2
f 150/4/2 151/4/2 153/4/2
f 151/3/2 152/3/2 153/3/2
f 153/3/2 152/3/2 154/3/2
f 143/4/2 144/4/2 155/4/2
f 144/4/2 145/4/2 155/4/2
f 145/6/2 146/6/2 156/6/2
f 155/4/2 145/4/2 156/4/2
f 153/4/2 154/4/2 157/4/2
f 156/6/2 146/6/2 157/6/2
f 146/4/2 150/4/2 157/4/2
f 150/4/2 153/4/2 157/4/2
f 157/4/2 154/4/2 158/4/2
f 162/4/3 160/4/3 159/4/3
f 163/4/3 160/4/3 162/4/3
f 165/4/3 162/4/3 161/4/3
f 165/4/3 164/4/3 163/4/3
f 165/4/3 163/4/3 162/4/3
f 166/4/3 164/4/3 165/4/3
f 167/4/3 164/4/3 166/4/3
f 168/4/3 164/4/3 167/4/3
f 169/4/3 167/4/3 166/4/3
f 170/4/3 167/4/3 169/4/3
f 174/4/3 172/4/3 171/4/3
f 175/4/3 172/4/3 174/4/3
f 178/4/3 174/4/3 173/4/3
f 179/4/3 174/4/3 178/4/3
f 180/4/3 176/4/3 175/4/3
f 181/4/3 176/4/3 180/4/3
f 183/4/3 178/4/3 177/4/3
f 184/4/3 178/4/3 183/4/3
f 187/4/3 182/4/3 181/4/3
f 188/4/3 182/4/3 187/4/3
f 189/4/3 185/4/3 184/4/3
f 190/4/3 185/4/3 189/4/3
f 191/4/3 187/4/3 186/4/3
f 192/4/3 187/4/3 191/4/3
f 193/4/3 191/4/3 190/4/3
f 194/4/3 191/4/3 193/4/3
f 198/4/3 196/4/3 195/4/3
f 199/4/3 196/4/3 198/4/3
f 200/4/3 198/4/3 197/4/3
f 201/4/3 198/4/3 200/4/3
f 204/4/3 203/4/3 202/4/3
f 205/4/3 203/4/3 204/4/3
f 207/4/3 206/4/3 205/4/3
f 208/4/3 206/4/3 207/4/3
f 209/3/4 210/3/4 213/3/4
f 213/3/4 210/3/4 214/3/4
f 211/4/4 212/4/4 215/4/4
f 215/4/4 212/4/4 216/4/4
f 217/1/4 218/1/4 219/1/4
f 219/1/4 218/1/4 220/1/4
f 221/4/4 222/4/4 223/4/4
f 223/4/4 222/4/4 224/4/4
f 225/3/4 226/3/4 227/3/4
f 227/3/4 226/3/4 228/3/4
f 229/3/4 230/3/4 234/3/4
f 231/3/4 232/3/4 235/3/4
f 232/4/4 233/4/4 236/4/4
f 235/3/4 232/3/4 236/3/4
f 236/4/4 233/4/4 237/4/4
f 229/3/4 234/3/4 240/3/4
f 234/1/4 235/1/4 241/1/4
f 240/3/4 234/3/4 241/3/4
f 241/1/4 235/1/4 242/1/4
f 242/1/4 235/1/4 243/1/4
f 237/4/4 238/4/4 245/4/4
f 245/4/4 238/4/4 246/4/4
f 239/3/4 240/3/4 248/3/4
f 240/1/4 241/1/4 249/1/4
f 248/3/4 240/3/4 249/3/4
f 241/1/4 242/1/4 249/1/4
f 248/6/4 249/6/4 250/6/4
f 249/1/4 242/1/4 251/1/4
f 250/6/4 249/6/4 251/6/4
f 243/2/4 244/2/4 252/2/4
f 251/1/4 242/1/4 252/1/4
f 242/2/4 243/2/4 252/2/4
f 252/2/4 244/2/4 253/2/4
f 246/4/4 247/4/4 254/4/4
f 254/4/4 247/4/4 255/4/4
f 252/1/4 253/1/4 257/1/4
f 251/1/4 252/1/4 257/1/4
f 257/1/4 253/1/4 258/1/4
f 258/1/4 253/1/4 259/1/4
f 254/6/4 255/6/4 260/6/4
f 260/6/4 255/6/4 261/6/4
f 256/6/4 257/6/4 262/6/4
f 257/1/4 258/1/4 263/1/4
f 262/6/4 257/6/4 263/6/4
f 262/3/4 263/3/4 264/3/4
f 263/1/4 258/1/4 265/1/4
f 264/3/4 263/3/4 265/3/4
f 265/1/4 258/1/4 266/1/4
f 258/2/4 259/2/4 267/2/4
f 266/1/4 258/1/4 267/1/4
f 267/2/4 259/2/4 268/2/4
f 268/2/4 259/2/4 269/2/4
f 260/4/4 261/4/4 271/4/4
f 271/4/4 261/4/4 272/4/4
f 265/3/4 266/3/4 273/3/4
f 266/1/4 267/1/4 273/1/4
f 267/1/4 268/1/4 273/1/4
f 273/1/4 268/1/4 274/1/4
f 270/4/4 271/4/4 276/4/4
f 276/4/4 271/4/4 277/4/4
f 265/3/4 273/3/4 278/3/4
f 278/3/4 273/3/4 279/3/4
f 274/3/4 275/3/4 280/3/4
f 275/4/4 276/4/4 281/4/4
f 280/3/4 275/3/4 281/3/4
f 281/4/4 276/4/4 282/4/4
f 283/3/4 284/3/4 286/3/4
f 284/4/4 285/4/4 287/4/4
f 286/3/4 284/3/4 287/3/4
f 287/4/4 285/4/4 288/4/4
f 288/4/4 289/4/4 290/4/4
f 287/3/4 288/3/4 290/3/4
f 290/4/4 289/4/4 291/4/4
f 287/3/4 290/3/4 292/3/4
f 290/6/4 291/6/4 292/6/4
f 292/6/4 291/6/4 293/6/4
f 287/3/4 292/3/4 295/3/4
f 292/4/4 293/4/4 296/4/4
f 295/3/4 292/3/4 296/3/4
f 296/4/4 293/4/4 297/4/4
f 294/3/4 295/3/4 298/3/4
f 295/4/4 296/4/4 299/4/4
f 298/3/4 295/3/4 299/3/4
f 299/4/4 296/4/4 300/4/4
f 304/4/5 302/4/5 301/4/5
f 305/4/5 302/4/5 304/4/5
f 306/4/5 302/4/5 305/4/5
f 307/4/5 302/4/5 306/4/5
f 309/4/5 304/4/5 303/4/5
f 309/4/5 305/4/5 304/4/5
f 310/1/5 306/1/5 305/1/5
f 310/4/5 305/4/5 309/4/5
f 311/4/5 308/4/5 307/4/5
f 311/1/5 306/1/5 310/1/5
f 311/4/5 307/4/5 306/4/5
f 312/4/5 308/4/5 311/4/5
f 313/1/5 310/1/5 309/1/5
f 313/4/5 309/4/5 303/4/5
f 313/1/5 312/1/5 311/1/5
f 313/1/5 311/1/5 310/1/5
f 314/1/5 312/1/5 313/1/5
f 315/1/5 312/1/5 314/1/5
f 316/1/5 312/1/5 315/1/5
f 317/4/5 308/4/5 312/4/5
f 317/1/5 312/1/5 316/1/5
f 318/4/5 308/4/5 317/4/5
f 319/4/5 313/4/5 303/4/5
f 319/4/5 314/4/5 313/4/5
f 320/5/5 315/5/5 314/5/5
f 320/4/5 314/4/5 319/4/5
f 321/1/5 316/1/5 315/1/5
f 321/5/5 315/5/5 320/5/5
f 322/5/5 318/5/5 317/5/5
f 322/1/5 316/1/5 321/1/5
f 322/5/5 317/5/5 316/5/5
f 323/5/5 318/5/5 322/5/5
f 324/5/5 318/5/5 323/5/5
f 325/1/5 320/1/5 319/1/5
f 325/1/5 321/1/5 320/1/5
f 325/4/5 319/4/5 303/4/5
f 325/1/5 323/1/5 322/1/5
f 325/1/5 322/1/5 321/1/5
f 326/1/5 323/1/5 325/1/5
f 327/1/5 323/1/5 326/1/5
f 328/4/5 324/4/5 323/4/5
f 328/1/5 323/1/5 327/1/5
f 329/4/5 325/4/5 303/4/5
f 329/4/5 326/4/5 325/4/5
f 330/4/5 326/4/5 329/4/5
f 331/1/5 327/1/5 326/1/5
f 331/4/5 326/4/5 330/4/5
f 332/1/5 327/1/5 331/1/5
f 333/1/5 327/1/5 332/1/5
f 334/4/5 328/4/5 327/4/5
f 334/1/5 327/1/5 333/1/5
f 335/4/5 324/4/5 328/4/5
f 335/4/5 328/4/5 334/4/5
f 336/4/5 324/4/5 335/4/5
f 337/3/5 331/3/5 330/3/5
f 338/6/5 332/6/5 331/6/5
f 338/3/5 331/3/5 337/3/5
f 339/6/5 332/6/5 338/6/5
f 340/6/5 334/6/5 333/6/5
f 341/3/5 335/3/5 334/3/5
f 341/6/5 334/6/5 340/6/5
f 342/3/5 335/3/5 341/3/5
f 346/4/5 344/4/5 343/4/5
f 347/4/5 344/4/5 346/4/5
f 350/4/5 346/4/5 345/4/5
f 351/4/5 346/4/5 350/4/5
f 352/4/5 348/4/5 347/4/5
f 353/4/5 348/4/5 352/4/5
f 355/4/5 354/4/5 353/4/5
f 356/4/5 354/4/5 355/4/5
f 357/4/5 350/4/5 349/4/5
f 358/4/5 350/4/5 357/4/5
f 363/4/5 354/4/5 356/4/5
f 364/4/5 354/4/5 363/4/5
f 365/3/5 358/3/5 357/3/5
f 365/3/5 359/3/5 358/3/5
f 366/3/5 359/3/5 365/3/5
f 367/1/5 361/1/5 360/1/5
f 368/1/5 361/1/5 367/1/5
f 369/3/5 364/3/5 363/3/5
f 369/3/5 363/3/5 362/3/5
f 370/3/5 364/3/5 369/3/5
f 376/4/5 372/4/5 371/4/5
f 377/4/5 372/4/5 376/4/5
f 378/4/5 374/4/5 373/4/5
f 379/4/5 374/4/5 378/4/5
f 381/4/5 376/4/5 375/4/5
f 382/4/5 376/4/5 381/4/5
f 383/4/5 380/4/5 379/4/5
f 384/4/5 380/4/5 383/4/5
f 389/3/5 386/3/5 385/3/5
f 390/3/5 386/3/5 389/3/5
f 393/3/5 388/3/5 387/3/5
f 394/3/5 388/3/5 393/3/5
f 395/3/5 391/3/5 390/3/5
f 396/3/5 391/3/5 395/3/5
f 397/3/5 393/3/5 392/3/5
f 398/3/5 393/3/5 397/3/5
f 403/3/5 400/3/5 399/3/5
f 403/3/5 402/3/5 401/3/5
f 403/3/5 401/3/5 400/3/5
f 404/3/5 402/3/5 403/3/5
f 405/3/6 406/3/6 409/3/6
f 409/3/6 406/3/6 410/3/6
f 407/3/6 408/3/6 411/3/6
f 411/3/6 408/3/6 412/3/6
f 413/4/6 414/4/6 418/4/6
f 418/4/6 414/4/6 419/4/6
f 415/4/6 416/4/6 420/4/6
f 420/4/6 416/4/6 421/4/6
f 417/4/6 418/4/6 423/4/6
f 423/4/6 418/4/6 424/4/6
f 421/4/6 422/4/6 425/4/6
f 425/4/6 422/4/6 426/4/6
f 423/6/6 424/6/6 427/6/6
f 427/6/6 424/6/6 428/6/6
f 425/6/6 426/6/6 429/6/6
f 429/6/6 426/6/6 430/6/6
f 427/4/6 428/4/6 431/4/6
f 431/4/6 428/4/6 432/4/6
f 429/4/6 430/4/6 435/4/6
f 435/4/6 430/4/6 436/4/6
f 432/4/6 433/4/6 437/4/6
f 437/4/6 433/4/6 438/4/6
f 434/4/6 435/4/6 439/4/6
f 439/4/6 435/4/6 440/4/6
f 441/4/6 442/4/6 444/4/6
f 444/4/6 442/4/6 445/4/6
f 443/4/6 444/4/6 447/4/6
f 447/4/6 444/4/6 448/4/6
f 445/4/6 446/4/6 449/4/6
f 449/4/6 446/4/6 450/4/6
f 447/6/6 448/6/6 451/6/6
f 451/6/6 448/6/6 452/6/6
f 449/6/6 450/6/6 453/6/6
f 453/6/6 450/6/6 454/6/6
f 451/4/6 452/4/6 455/4/6
f 455/4/6 452/4/6 456/4/6
f 453/4/6 454/4/6 459/4/6
f 459/4/6 454/4/6 460/4/6
f 456/4/6 457/4/6 461/4/6
f 457/6/6 458/6/6 462/6/6
f 461/4/6 457/4/6 462/4/6
f 458/4/6 459/4/6 463/4/6
f 462/6/6 458/6/6 463/6/6
f 463/4/6 459/4/6 464/4/6
f 465/4/6 466/4/6 467/4/6
f 467/4/6 466/4/6 468/4/6
f 467/6/6 468/6/6 469/6/6
f 469/6/6 468/6/6 470/6/6
f 470/6/6 468/6/6 471/6/6
f 471/6/6 468/6/6 472/6/6
f 469/4/6 470/4/6 473/4/6
f 470/6/6 471/6/6 474/6/6
f 473/4/6 470/4/6 474/4/6
f 471/4/6 472/4/6 475/4/6
f 474/6/6 471/6/6 475/6/6
f 475/4/6 472/4/6 476/4/6
