# MagicaVoxel @ Ephtracy

# group
o 

# material
mtllib Soldier_Export-0.mtl
usemtl palette

# normals
vn -1 0 0
vn 1 0 0
vn 0 0 1
vn 0 0 -1
vn 0 -1 0
vn 0 1 0

# texcoords
vt 0.0332031 0.5
vt 0.0722656 0.5
vt 0.751953 0.5
vt 0.951172 0.5
vt 0.955078 0.5
vt 0.958984 0.5

# verts
v -0.7 -0.1 0.1
v -0.7 -0.1 -0.2
v -0.7 0 0.1
v -0.7 0 -0.2
v -0.6 -0.2 0.1
v -0.6 -0.2 -0.2
v -0.6 -0.1 0.2
v -0.6 -0.1 0.1
v -0.6 -0.1 -0.2
v -0.6 0 0.2
v -0.6 0 0.1
v -0.6 0 -0.2
v -0.6 0.1 0.1
v -0.6 0.1 -0.2
v -0.5 -0.4 -0.1
v -0.5 -0.4 -0.3
v -0.5 -0.3 0
v -0.5 -0.3 -0.1
v -0.5 -0.3 -0.2
v -0.5 -0.3 -0.3
v -0.5 -0.2 0.2
v -0.5 -0.2 0.1
v -0.5 -0.2 0
v -0.5 -0.2 -0.2
v -0.5 -0.1 0.2
v -0.5 -0.1 0.1
v -0.5 0 0.2
v -0.5 0 0.1
v -0.5 0.1 0.1
v -0.5 0.2 0.2
v -0.5 0.2 0.1
v -0.4 -0.5 0.2
v -0.4 -0.5 -0.4
v -0.4 -0.4 0.3
v -0.4 -0.4 0.2
v -0.4 -0.4 -0.1
v -0.4 -0.4 -0.3
v -0.4 -0.4 -0.4
v -0.4 -0.3 0.4
v -0.4 -0.3 0.3
v -0.4 -0.3 0.2
v -0.4 -0.3 0
v -0.4 -0.3 -0.1
v -0.4 -0.3 -0.2
v -0.4 -0.3 -0.3
v -0.4 -0.2 0.2
v -0.4 -0.2 0
v -0.4 -0.2 -0.1
v -0.4 -0.2 -0.2
v -0.4 -0.1 -0.1
v -0.4 -0.1 -0.2
v -0.4 0 0.1
v -0.4 0 -0.2
v -0.4 0.2 0.4
v -0.4 0.2 0.3
v -0.4 0.2 0.2
v -0.4 0.2 0.1
v -0.4 0.2 0
v -0.4 0.2 -0.3
v -0.4 0.3 0.3
v -0.4 0.3 0
v -0.3 -0.5 -0.4
v -0.3 -0.5 -0.5
v -0.3 -0.4 -0.3
v -0.3 -0.4 -0.4
v -0.3 -0.4 -0.5
v -0.3 -0.3 0.5
v -0.3 -0.3 0.4
v -0.3 -0.3 -0.3
v -0.3 0 -0.4
v -0.3 0 -0.5
v -0.3 0.2 0.5
v -0.3 0.2 0.4
v -0.3 0.2 0.3
v -0.3 0.2 0
v -0.3 0.2 -0.3
v -0.3 0.2 -0.4
v -0.3 0.3 0.4
v -0.3 0.3 0.3
v -0.3 0.3 0
v -0.3 0.3 -0.3
v -0.3 0.4 0.3
v -0.3 0.4 0
v -0.2 -0.5 0.3
v -0.2 -0.5 -0.2
v -0.2 -0.4 0.4
v -0.2 -0.4 0.3
v -0.2 -0.4 -0.2
v -0.2 -0.3 0.4
v -0.2 -0.3 0.3
v -0.2 0 -0.4
v -0.2 0 -0.5
v -0.2 0.1 -0.4
v -0.2 0.1 -0.5
v -0.2 0.2 -0.3
v -0.2 0.2 -0.4
v -0.2 0.3 0.4
v -0.2 0.3 0.3
v -0.2 0.3 0
v -0.2 0.3 -0.3
v -0.2 0.3 -0.4
v -0.2 0.4 0.4
v -0.2 0.4 0.3
v -0.2 0.4 0
v -0.2 0.4 -0.3
v -0.2 0.5 0.3
v -0.2 0.5 0
v 0.5 -0.5 0.2
v 0.5 -0.5 -0.3
v 0.5 -0.4 0.2
v 0.5 -0.4 -0.2
v 0.5 -0.4 -0.3
v -0.5 -0.2 -0.1
v -0.5 -0.2 -0.2
v -0.5 -0.1 -0.1
v -0.5 -0.1 -0.2
v -0.5 0 0.1
v -0.5 0 -0.2
v -0.5 0.1 0.1
v -0.5 0.1 -0.2
v -0.3 -0.5 0.2
v -0.3 -0.5 -0.3
v -0.3 -0.4 0.2
v -0.3 -0.4 -0.2
v -0.3 -0.4 -0.3
v 0.4 -0.5 0.3
v 0.4 -0.5 -0.2
v 0.4 -0.4 0.4
v 0.4 -0.4 0.3
v 0.4 -0.4 -0.2
v 0.4 -0.3 0.4
v 0.4 -0.3 0.3
v 0.4 0 -0.4
v 0.4 0 -0.5
v 0.4 0.1 -0.4
v 0.4 0.1 -0.5
v 0.4 0.2 -0.3
v 0.4 0.2 -0.4
v 0.4 0.3 0.4
v 0.4 0.3 0.3
v 0.4 0.3 0
v 0.4 0.3 -0.3
v 0.4 0.3 -0.4
v 0.4 0.4 0.4
v 0.4 0.4 0.3
v 0.4 0.4 0
v 0.4 0.4 -0.3
v 0.4 0.5 0.3
v 0.4 0.5 0
v 0.5 -0.5 -0.4
v 0.5 -0.5 -0.5
v 0.5 -0.4 -0.3
v 0.5 -0.4 -0.4
v 0.5 -0.4 -0.5
v 0.5 -0.3 0.5
v 0.5 -0.3 0.4
v 0.5 -0.3 -0.3
v 0.5 0 -0.4
v 0.5 0 -0.5
v 0.5 0.2 0.5
v 0.5 0.2 0.4
v 0.5 0.2 0.3
v 0.5 0.2 0
v 0.5 0.2 -0.3
v 0.5 0.2 -0.4
v 0.5 0.3 0.4
v 0.5 0.3 0.3
v 0.5 0.3 0
v 0.5 0.3 -0.3
v 0.5 0.4 0.3
v 0.5 0.4 0
v 0.6 -0.5 0.2
v 0.6 -0.5 -0.4
v 0.6 -0.4 0.3
v 0.6 -0.4 0.2
v 0.6 -0.4 -0.1
v 0.6 -0.4 -0.3
v 0.6 -0.4 -0.4
v 0.6 -0.3 0.4
v 0.6 -0.3 0.3
v 0.6 -0.3 0.2
v 0.6 -0.3 0
v 0.6 -0.3 -0.1
v 0.6 -0.3 -0.2
v 0.6 -0.3 -0.3
v 0.6 -0.2 0.2
v 0.6 -0.2 0
v 0.6 -0.2 -0.1
v 0.6 -0.2 -0.2
v 0.6 -0.1 0
v 0.6 -0.1 -0.1
v 0.6 0 0.1
v 0.6 0 0
v 0.6 0.2 0.4
v 0.6 0.2 0.3
v 0.6 0.2 0.2
v 0.6 0.2 0.1
v 0.6 0.2 0
v 0.6 0.2 -0.3
v 0.6 0.3 0.3
v 0.6 0.3 0
v 0.7 -0.4 -0.1
v 0.7 -0.4 -0.3
v 0.7 -0.3 0
v 0.7 -0.3 -0.1
v 0.7 -0.3 -0.2
v 0.7 -0.3 -0.3
v 0.7 -0.2 0.2
v 0.7 -0.2 0
v 0.7 -0.2 -0.1
v 0.7 -0.2 -0.2
v 0.7 -0.1 0
v 0.7 -0.1 -0.1
v 0.7 0 0.1
v 0.7 0 0
v 0.7 0.2 0.2
v 0.7 0.2 0.1
v -0.3 -0.3 0.5
v -0.3 0.2 0.5
v -0.1 -0.2 0.5
v -0.1 0.2 0.5
v 0.3 -0.2 0.5
v 0.3 0.2 0.5
v 0.5 -0.3 0.5
v 0.5 0.2 0.5
v -0.4 -0.3 0.4
v -0.4 0.2 0.4
v -0.3 -0.3 0.4
v -0.3 0.2 0.4
v -0.3 0.3 0.4
v -0.2 -0.4 0.4
v -0.2 -0.3 0.4
v -0.2 0.3 0.4
v -0.2 0.4 0.4
v -0.1 0.2 0.4
v -0.1 0.4 0.4
v 0.3 0.2 0.4
v 0.3 0.4 0.4
v 0.4 -0.4 0.4
v 0.4 -0.3 0.4
v 0.4 0.3 0.4
v 0.4 0.4 0.4
v 0.5 -0.3 0.4
v 0.5 0.2 0.4
v 0.5 0.3 0.4
v 0.6 -0.3 0.4
v 0.6 0.2 0.4
v -0.4 -0.4 0.3
v -0.4 -0.3 0.3
v -0.4 0.2 0.3
v -0.4 0.3 0.3
v -0.3 -0.4 0.3
v -0.3 -0.3 0.3
v -0.3 0.2 0.3
v -0.3 0.3 0.3
v -0.3 0.4 0.3
v -0.2 -0.5 0.3
v -0.2 -0.4 0.3
v -0.2 -0.3 0.3
v -0.2 0.3 0.3
v -0.2 0.4 0.3
v -0.2 0.5 0.3
v -0.1 0.4 0.3
v -0.1 0.5 0.3
v 0.3 0.4 0.3
v 0.3 0.5 0.3
v 0.4 -0.5 0.3
v 0.4 -0.4 0.3
v 0.4 -0.3 0.3
v 0.4 0.3 0.3
v 0.4 0.4 0.3
v 0.4 0.5 0.3
v 0.5 -0.4 0.3
v 0.5 -0.3 0.3
v 0.5 0.2 0.3
v 0.5 0.3 0.3
v 0.5 0.4 0.3
v 0.6 -0.4 0.3
v 0.6 -0.3 0.3
v 0.6 0.2 0.3
v 0.6 0.3 0.3
v -0.6 -0.1 0.2
v -0.6 0 0.2
v -0.5 -0.2 0.2
v -0.5 -0.1 0.2
v -0.5 0 0.2
v -0.5 0.2 0.2
v -0.4 -0.5 0.2
v -0.4 -0.4 0.2
v -0.4 -0.2 0.2
v -0.4 0.2 0.2
v -0.3 -0.5 0.2
v -0.3 -0.4 0.2
v 0.5 -0.5 0.2
v 0.5 -0.4 0.2
v 0.6 -0.5 0.2
v 0.6 -0.4 0.2
v 0.6 -0.2 0.2
v 0.6 0.2 0.2
v 0.7 -0.2 0.2
v 0.7 0.2 0.2
v -0.7 -0.1 0.1
v -0.7 0 0.1
v -0.6 -0.2 0.1
v -0.6 -0.1 0.1
v -0.6 0 0.1
v -0.6 0.1 0.1
v -0.5 -0.2 0.1
v -0.5 -0.1 0.1
v -0.5 0 0.1
v -0.5 0.1 0.1
v -0.5 -0.3 0
v -0.5 -0.2 0
v -0.4 -0.3 0
v -0.4 -0.2 0
v 0.6 -0.3 0
v 0.6 -0.2 0
v 0.7 -0.3 0
v 0.7 -0.2 0
v -0.5 -0.4 -0.1
v -0.5 -0.3 -0.1
v -0.4 -0.4 -0.1
v -0.4 -0.3 -0.1
v 0.6 -0.4 -0.1
v 0.6 -0.3 -0.1
v 0.7 -0.4 -0.1
v 0.7 -0.3 -0.1
v -0.3 -0.5 -0.3
v -0.3 -0.4 -0.3
v -0.2 -0.4 -0.3
v 0.4 -0.4 -0.3
v 0.5 -0.5 -0.3
v 0.5 -0.4 -0.3
v -0.5 0 0.1
v -0.5 0.1 0.1
v -0.5 0.2 0.1
v -0.4 0 0.1
v -0.4 0.2 0.1
v 0.6 0 0.1
v 0.6 0.2 0.1
v 0.7 0 0.1
v 0.7 0.2 0.1
v -0.4 0.2 0
v -0.4 0.3 0
v -0.3 0.2 0
v -0.3 0.3 0
v -0.3 0.4 0
v -0.2 0.3 0
v -0.2 0.4 0
v -0.2 0.5 0
v 0.4 0.3 0
v 0.4 0.4 0
v 0.4 0.5 0
v 0.5 0.2 0
v 0.5 0.3 0
v 0.5 0.4 0
v 0.6 -0.1 0
v 0.6 0 0
v 0.6 0.2 0
v 0.6 0.3 0
v 0.7 -0.1 0
v 0.7 0 0
v -0.5 -0.2 -0.1
v -0.5 -0.1 -0.1
v -0.4 -0.2 -0.1
v -0.4 -0.1 -0.1
v 0.6 -0.2 -0.1
v 0.6 -0.1 -0.1
v 0.7 -0.2 -0.1
v 0.7 -0.1 -0.1
v -0.7 -0.1 -0.2
v -0.7 0 -0.2
v -0.6 -0.2 -0.2
v -0.6 -0.1 -0.2
v -0.6 0 -0.2
v -0.6 0.1 -0.2
v -0.5 -0.3 -0.2
v -0.5 -0.2 -0.2
v -0.5 -0.1 -0.2
v -0.5 0 -0.2
v -0.5 0.1 -0.2
v -0.4 -0.3 -0.2
v -0.4 -0.2 -0.2
v -0.4 -0.1 -0.2
v -0.4 0 -0.2
v -0.2 -0.5 -0.2
v -0.2 -0.4 -0.2
v 0.4 -0.5 -0.2
v 0.4 -0.4 -0.2
v 0.6 -0.3 -0.2
v 0.6 -0.2 -0.2
v 0.7 -0.3 -0.2
v 0.7 -0.2 -0.2
v -0.5 -0.4 -0.3
v -0.5 -0.3 -0.3
v -0.4 -0.4 -0.3
v -0.4 -0.3 -0.3
v -0.4 0.2 -0.3
v -0.3 -0.4 -0.3
v -0.3 -0.3 -0.3
v -0.3 0.2 -0.3
v -0.3 0.3 -0.3
v -0.2 0.2 -0.3
v -0.2 0.3 -0.3
v -0.2 0.4 -0.3
v 0.4 0.2 -0.3
v 0.4 0.3 -0.3
v 0.4 0.4 -0.3
v 0.5 -0.4 -0.3
v 0.5 -0.3 -0.3
v 0.5 0.2 -0.3
v 0.5 0.3 -0.3
v 0.6 -0.4 -0.3
v 0.6 -0.3 -0.3
v 0.6 0.2 -0.3
v 0.7 -0.4 -0.3
v 0.7 -0.3 -0.3
v -0.4 -0.5 -0.4
v -0.4 -0.4 -0.4
v -0.3 -0.5 -0.4
v -0.3 -0.4 -0.4
v -0.3 0 -0.4
v -0.3 0.2 -0.4
v -0.2 0 -0.4
v -0.2 0.1 -0.4
v -0.2 0.2 -0.4
v -0.2 0.3 -0.4
v 0.4 0 -0.4
v 0.4 0.1 -0.4
v 0.4 0.2 -0.4
v 0.4 0.3 -0.4
v 0.5 -0.5 -0.4
v 0.5 -0.4 -0.4
v 0.5 0 -0.4
v 0.5 0.2 -0.4
v 0.6 -0.5 -0.4
v 0.6 -0.4 -0.4
v -0.3 -0.5 -0.5
v -0.3 -0.4 -0.5
v -0.3 0 -0.5
v -0.2 0 -0.5
v -0.2 0.1 -0.5
v 0.4 0 -0.5
v 0.4 0.1 -0.5
v 0.5 -0.5 -0.5
v 0.5 -0.4 -0.5
v 0.5 0 -0.5
v -0.2 -0.5 0.3
v 0.4 -0.5 0.3
v -0.4 -0.5 0.2
v -0.3 -0.5 0.2
v 0.5 -0.5 0.2
v 0.6 -0.5 0.2
v -0.2 -0.5 -0.2
v 0.4 -0.5 -0.2
v -0.3 -0.5 -0.3
v 0.5 -0.5 -0.3
v -0.4 -0.5 -0.4
v -0.3 -0.5 -0.4
v 0.5 -0.5 -0.4
v 0.6 -0.5 -0.4
v -0.3 -0.5 -0.5
v 0.5 -0.5 -0.5
v -0.2 -0.4 0.4
v 0.4 -0.4 0.4
v -0.4 -0.4 0.3
v -0.3 -0.4 0.3
v -0.2 -0.4 0.3
v 0.4 -0.4 0.3
v 0.5 -0.4 0.3
v 0.6 -0.4 0.3
v -0.4 -0.4 0.2
v -0.3 -0.4 0.2
v 0.5 -0.4 0.2
v 0.6 -0.4 0.2
v -0.5 -0.4 -0.1
v -0.4 -0.4 -0.1
v 0.6 -0.4 -0.1
v 0.7 -0.4 -0.1
v -0.3 -0.4 -0.2
v -0.2 -0.4 -0.2
v 0.4 -0.4 -0.2
v 0.5 -0.4 -0.2
v -0.5 -0.4 -0.3
v -0.4 -0.4 -0.3
v -0.3 -0.4 -0.3
v -0.2 -0.4 -0.3
v 0.4 -0.4 -0.3
v 0.5 -0.4 -0.3
v 0.6 -0.4 -0.3
v 0.7 -0.4 -0.3
v -0.3 -0.3 0.5
v 0.5 -0.3 0.5
v -0.4 -0.3 0.4
v -0.3 -0.3 0.4
v -0.2 -0.3 0.4
v 0.4 -0.3 0.4
v 0.5 -0.3 0.4
v 0.6 -0.3 0.4
v -0.4 -0.3 0.3
v -0.3 -0.3 0.3
v -0.2 -0.3 0.3
v 0.4 -0.3 0.3
v 0.5 -0.3 0.3
v 0.6 -0.3 0.3
v -0.5 -0.3 0
v -0.4 -0.3 0
v 0.6 -0.3 0
v 0.7 -0.3 0
v -0.5 -0.3 -0.1
v -0.4 -0.3 -0.1
v 0.6 -0.3 -0.1
v 0.7 -0.3 -0.1
v -0.5 -0.2 0.2
v -0.4 -0.2 0.2
v 0.6 -0.2 0.2
v 0.7 -0.2 0.2
v -0.6 -0.2 0.1
v -0.5 -0.2 0.1
v -0.5 -0.2 0
v -0.4 -0.2 0
v 0.6 -0.2 0
v 0.7 -0.2 0
v -0.6 -0.2 -0.2
v -0.5 -0.2 -0.2
v -0.6 -0.1 0.2
v -0.5 -0.1 0.2
v -0.7 -0.1 0.1
v -0.6 -0.1 0.1
v -0.5 -0.1 0.1
v -0.5 -0.1 -0.1
v -0.4 -0.1 -0.1
v -0.7 -0.1 -0.2
v -0.6 -0.1 -0.2
v -0.5 -0.1 -0.2
v -0.4 -0.1 -0.2
v -0.4 -0.4 -0.3
v -0.3 -0.4 -0.3
v 0.5 -0.4 -0.3
v 0.6 -0.4 -0.3
v -0.4 -0.4 -0.4
v -0.3 -0.4 -0.4
v 0.5 -0.4 -0.4
v 0.6 -0.4 -0.4
v -0.5 -0.3 -0.2
v -0.4 -0.3 -0.2
v 0.6 -0.3 -0.2
v 0.7 -0.3 -0.2
v -0.5 -0.3 -0.3
v -0.4 -0.3 -0.3
v 0.6 -0.3 -0.3
v 0.7 -0.3 -0.3
v -0.5 -0.2 -0.1
v -0.4 -0.2 -0.1
v 0.6 -0.2 -0.1
v 0.7 -0.2 -0.1
v -0.5 -0.2 -0.2
v -0.4 -0.2 -0.2
v 0.6 -0.2 -0.2
v 0.7 -0.2 -0.2
v 0.6 -0.1 0
v 0.7 -0.1 0
v 0.6 -0.1 -0.1
v 0.7 -0.1 -0.1
v -0.6 0 0.2
v -0.5 0 0.2
v -0.7 0 0.1
v -0.6 0 0.1
v -0.5 0 0.1
v -0.4 0 0.1
v 0.6 0 0.1
v 0.7 0 0.1
v 0.6 0 0
v 0.7 0 0
v -0.7 0 -0.2
v -0.6 0 -0.2
v -0.5 0 -0.2
v -0.4 0 -0.2
v -0.3 0 -0.4
v -0.2 0 -0.4
v 0.4 0 -0.4
v 0.5 0 -0.4
v -0.3 0 -0.5
v -0.2 0 -0.5
v 0.4 0 -0.5
v 0.5 0 -0.5
v -0.6 0.1 0.1
v -0.5 0.1 0.1
v -0.6 0.1 -0.2
v -0.5 0.1 -0.2
v -0.2 0.1 -0.4
v 0.4 0.1 -0.4
v -0.2 0.1 -0.5
v 0.4 0.1 -0.5
v -0.3 0.2 0.5
v -0.1 0.2 0.5
v 0.3 0.2 0.5
v 0.5 0.2 0.5
v -0.4 0.2 0.4
v -0.3 0.2 0.4
v -0.1 0.2 0.4
v 0.3 0.2 0.4
v 0.5 0.2 0.4
v 0.6 0.2 0.4
v -0.4 0.2 0.3
v -0.3 0.2 0.3
v 0.5 0.2 0.3
v 0.6 0.2 0.3
v -0.5 0.2 0.2
v -0.4 0.2 0.2
v 0.6 0.2 0.2
v 0.7 0.2 0.2
v -0.5 0.2 0.1
v -0.4 0.2 0.1
v 0.6 0.2 0.1
v 0.7 0.2 0.1
v -0.4 0.2 0
v -0.3 0.2 0
v 0.5 0.2 0
v 0.6 0.2 0
v -0.4 0.2 -0.3
v -0.3 0.2 -0.3
v -0.2 0.2 -0.3
v 0.4 0.2 -0.3
v 0.5 0.2 -0.3
v 0.6 0.2 -0.3
v -0.3 0.2 -0.4
v -0.2 0.2 -0.4
v 0.4 0.2 -0.4
v 0.5 0.2 -0.4
v -0.3 0.3 0.4
v -0.2 0.3 0.4
v 0.4 0.3 0.4
v 0.5 0.3 0.4
v -0.4 0.3 0.3
v -0.3 0.3 0.3
v -0.2 0.3 0.3
v 0.4 0.3 0.3
v 0.5 0.3 0.3
v 0.6 0.3 0.3
v -0.4 0.3 0
v -0.3 0.3 0
v -0.2 0.3 0
v 0.4 0.3 0
v 0.5 0.3 0
v 0.6 0.3 0
v -0.3 0.3 -0.3
v -0.2 0.3 -0.3
v 0.4 0.3 -0.3
v 0.5 0.3 -0.3
v -0.2 0.3 -0.4
v 0.4 0.3 -0.4
v -0.2 0.4 0.4
v -0.1 0.4 0.4
v 0.3 0.4 0.4
v 0.4 0.4 0.4
v -0.3 0.4 0.3
v -0.2 0.4 0.3
v -0.1 0.4 0.3
v 0.3 0.4 0.3
v 0.4 0.4 0.3
v 0.5 0.4 0.3
v -0.3 0.4 0
v -0.2 0.4 0
v 0.4 0.4 0
v 0.5 0.4 0
v -0.2 0.4 -0.3
v 0.4 0.4 -0.3
v -0.2 0.5 0.3
v -0.1 0.5 0.3
v 0.3 0.5 0.3
v 0.4 0.5 0.3
v -0.1 0.5 0.1
v 0.3 0.5 0.1
v -0.2 0.5 0
v 0.4 0.5 0

# faces
f 3/5/1 2/5/1 1/5/1
f 4/5/1 2/5/1 3/5/1
f 8/5/1 6/5/1 5/5/1
f 9/5/1 6/5/1 8/5/1
f 10/5/1 8/5/1 7/5/1
f 11/5/1 8/5/1 10/5/1
f 13/5/1 12/5/1 11/5/1
f 14/5/1 12/5/1 13/5/1
f 18/5/1 16/5/1 15/5/1
f 19/5/1 16/5/1 18/5/1
f 20/5/1 16/5/1 19/5/1
f 23/5/1 18/5/1 17/5/1
f 23/5/1 19/5/1 18/5/1
f 24/5/1 19/5/1 23/5/1
f 25/5/1 22/5/1 21/5/1
f 26/5/1 22/5/1 25/5/1
f 29/5/1 28/5/1 27/5/1
f 30/5/1 29/5/1 27/5/1
f 31/5/1 29/5/1 30/5/1
f 35/5/1 33/5/1 32/5/1
f 36/5/1 33/5/1 35/5/1
f 37/5/1 33/5/1 36/5/1
f 38/5/1 33/5/1 37/5/1
f 40/5/1 35/5/1 34/5/1
f 41/4/1 36/4/1 35/4/1
f 41/5/1 35/5/1 40/5/1
f 42/4/1 36/4/1 41/4/1
f 43/4/1 36/4/1 42/4/1
f 46/4/1 41/4/1 40/4/1
f 46/4/1 42/4/1 41/4/1
f 47/4/1 42/4/1 46/4/1
f 49/3/1 45/3/1 44/3/1
f 50/3/1 49/3/1 48/3/1
f 51/3/1 45/3/1 49/3/1
f 51/3/1 49/3/1 50/3/1
f 53/3/1 45/3/1 51/3/1
f 54/5/1 40/5/1 39/5/1
f 55/4/1 46/4/1 40/4/1
f 55/5/1 40/5/1 54/5/1
f 56/4/1 46/4/1 55/4/1
f 57/3/1 53/3/1 52/3/1
f 58/3/1 53/3/1 57/3/1
f 59/3/1 45/3/1 53/3/1
f 59/3/1 53/3/1 58/3/1
f 60/5/1 56/5/1 55/5/1
f 60/5/1 58/5/1 57/5/1
f 60/5/1 57/5/1 56/5/1
f 61/5/1 58/5/1 60/5/1
f 65/5/1 63/5/1 62/5/1
f 66/5/1 63/5/1 65/5/1
f 69/3/1 65/3/1 64/3/1
f 69/3/1 66/3/1 65/3/1
f 70/3/1 66/3/1 69/3/1
f 71/3/1 66/3/1 70/3/1
f 72/5/1 68/5/1 67/5/1
f 73/5/1 68/5/1 72/5/1
f 76/3/1 70/3/1 69/3/1
f 77/3/1 70/3/1 76/3/1
f 78/5/1 74/5/1 73/5/1
f 79/5/1 74/5/1 78/5/1
f 80/3/1 76/3/1 75/3/1
f 81/3/1 76/3/1 80/3/1
f 82/5/1 80/5/1 79/5/1
f 83/5/1 80/5/1 82/5/1
f 87/1/1 85/1/1 84/1/1
f 88/1/1 85/1/1 87/1/1
f 89/1/1 87/1/1 86/1/1
f 90/1/1 87/1/1 89/1/1
f 93/3/1 92/3/1 91/3/1
f 94/3/1 92/3/1 93/3/1
f 100/3/1 96/3/1 95/3/1
f 101/3/1 96/3/1 100/3/1
f 102/5/1 98/5/1 97/5/1
f 103/5/1 98/5/1 102/5/1
f 104/3/1 100/3/1 99/3/1
f 105/3/1 100/3/1 104/3/1
f 106/5/1 104/5/1 103/5/1
f 107/5/1 104/5/1 106/5/1
f 110/5/1 109/5/1 108/5/1
f 111/5/1 109/5/1 110/5/1
f 112/5/1 109/5/1 111/5/1
f 113/5/2 114/5/2 115/5/2
f 115/5/2 114/5/2 116/5/2
f 117/5/2 118/5/2 119/5/2
f 119/5/2 118/5/2 120/5/2
f 121/5/2 122/5/2 123/5/2
f 123/5/2 122/5/2 124/5/2
f 124/5/2 122/5/2 125/5/2
f 126/1/2 127/1/2 129/1/2
f 129/1/2 127/1/2 130/1/2
f 128/1/2 129/1/2 131/1/2
f 131/1/2 129/1/2 132/1/2
f 133/3/2 134/3/2 135/3/2
f 135/3/2 134/3/2 136/3/2
f 137/3/2 138/3/2 142/3/2
f 142/3/2 138/3/2 143/3/2
f 139/5/2 140/5/2 144/5/2
f 144/5/2 140/5/2 145/5/2
f 141/3/2 142/3/2 146/3/2
f 146/3/2 142/3/2 147/3/2
f 145/5/2 146/5/2 148/5/2
f 148/5/2 146/5/2 149/5/2
f 150/5/2 151/5/2 153/5/2
f 153/5/2 151/5/2 154/5/2
f 152/3/2 153/3/2 157/3/2
f 153/3/2 154/3/2 157/3/2
f 157/3/2 154/3/2 158/3/2
f 158/3/2 154/3/2 159/3/2
f 155/5/2 156/5/2 160/5/2
f 160/5/2 156/5/2 161/5/2
f 157/3/2 158/3/2 164/3/2
f 164/3/2 158/3/2 165/3/2
f 161/5/2 162/5/2 166/5/2
f 166/5/2 162/5/2 167/5/2
f 163/3/2 164/3/2 168/3/2
f 168/3/2 164/3/2 169/3/2
f 167/5/2 168/5/2 170/5/2
f 170/5/2 168/5/2 171/5/2
f 172/5/2 173/5/2 175/5/2
f 175/5/2 173/5/2 176/5/2
f 176/5/2 173/5/2 177/5/2
f 177/5/2 173/5/2 178/5/2
f 174/5/2 175/5/2 180/5/2
f 175/4/2 176/4/2 181/4/2
f 180/5/2 175/5/2 181/5/2
f 181/4/2 176/4/2 182/4/2
f 182/4/2 176/4/2 183/4/2
f 180/4/2 181/4/2 186/4/2
f 181/4/2 182/4/2 186/4/2
f 186/4/2 182/4/2 187/4/2
f 184/3/2 185/3/2 189/3/2
f 188/3/2 189/3/2 191/3/2
f 190/3/2 191/3/2 193/3/2
f 179/5/2 180/5/2 194/5/2
f 180/4/2 186/4/2 195/4/2
f 194/5/2 180/5/2 195/5/2
f 195/4/2 186/4/2 196/4/2
f 192/3/2 193/3/2 197/3/2
f 193/3/2 191/3/2 198/3/2
f 197/3/2 193/3/2 198/3/2
f 189/3/2 185/3/2 199/3/2
f 198/3/2 191/3/2 199/3/2
f 191/3/2 189/3/2 199/3/2
f 195/5/2 196/5/2 200/5/2
f 197/5/2 198/5/2 200/5/2
f 196/5/2 197/5/2 200/5/2
f 200/5/2 198/5/2 201/5/2
f 202/5/2 203/5/2 205/5/2
f 205/5/2 203/5/2 206/5/2
f 206/5/2 203/5/2 207/5/2
f 204/5/2 205/5/2 209/5/2
f 205/5/2 206/5/2 209/5/2
f 209/5/2 206/5/2 210/5/2
f 210/5/2 206/5/2 211/5/2
f 208/5/2 209/5/2 212/5/2
f 209/5/2 210/5/2 212/5/2
f 212/5/2 210/5/2 213/5/2
f 208/5/2 212/5/2 214/5/2
f 214/5/2 212/5/2 215/5/2
f 208/5/2 214/5/2 216/5/2
f 216/5/2 214/5/2 217/5/2
f 220/5/3 219/5/3 218/5/3
f 221/5/3 219/5/3 220/5/3
f 222/5/3 220/5/3 218/5/3
f 222/4/3 221/4/3 220/4/3
f 223/4/3 221/4/3 222/4/3
f 224/5/3 222/5/3 218/5/3
f 224/5/3 223/5/3 222/5/3
f 225/5/3 223/5/3 224/5/3
f 228/5/3 227/5/3 226/5/3
f 229/5/3 227/5/3 228/5/3
f 233/5/3 230/5/3 229/5/3
f 235/5/3 233/5/3 229/5/3
f 235/5/3 234/5/3 233/5/3
f 236/5/3 234/5/3 235/5/3
f 237/4/3 236/4/3 235/4/3
f 238/4/3 236/4/3 237/4/3
f 239/1/3 232/1/3 231/1/3
f 240/1/3 232/1/3 239/1/3
f 241/5/3 238/5/3 237/5/3
f 242/5/3 238/5/3 241/5/3
f 244/5/3 241/5/3 237/5/3
f 245/5/3 241/5/3 244/5/3
f 246/5/3 244/5/3 243/5/3
f 247/5/3 244/5/3 246/5/3
f 252/5/3 249/5/3 248/5/3
f 253/5/3 249/5/3 252/5/3
f 254/5/3 251/5/3 250/5/3
f 255/5/3 251/5/3 254/5/3
f 258/1/3 253/1/3 252/1/3
f 259/1/3 253/1/3 258/1/3
f 260/5/3 256/5/3 255/5/3
f 261/5/3 256/5/3 260/5/3
f 263/5/3 262/5/3 261/5/3
f 264/5/3 262/5/3 263/5/3
f 265/4/3 264/4/3 263/4/3
f 266/4/3 264/4/3 265/4/3
f 267/1/3 258/1/3 257/1/3
f 268/1/3 258/1/3 267/1/3
f 271/5/3 266/5/3 265/5/3
f 272/5/3 266/5/3 271/5/3
f 273/1/3 269/1/3 268/1/3
f 274/1/3 269/1/3 273/1/3
f 276/5/3 271/5/3 270/5/3
f 277/5/3 271/5/3 276/5/3
f 278/5/3 274/5/3 273/5/3
f 279/5/3 274/5/3 278/5/3
f 280/5/3 276/5/3 275/5/3
f 281/5/3 276/5/3 280/5/3
f 285/5/3 283/5/3 282/5/3
f 286/5/3 283/5/3 285/5/3
f 290/5/3 285/5/3 284/5/3
f 290/5/3 286/5/3 285/5/3
f 290/5/3 287/5/3 286/5/3
f 291/5/3 287/5/3 290/5/3
f 292/5/3 289/5/3 288/5/3
f 293/5/3 289/5/3 292/5/3
f 296/5/3 295/5/3 294/5/3
f 297/5/3 295/5/3 296/5/3
f 300/5/3 299/5/3 298/5/3
f 301/5/3 299/5/3 300/5/3
f 305/5/3 303/5/3 302/5/3
f 306/5/3 303/5/3 305/5/3
f 308/5/3 305/5/3 304/5/3
f 309/5/3 305/5/3 308/5/3
f 310/5/3 307/5/3 306/5/3
f 311/5/3 307/5/3 310/5/3
f 314/5/3 313/5/3 312/5/3
f 315/5/3 313/5/3 314/5/3
f 318/5/3 317/5/3 316/5/3
f 319/5/3 317/5/3 318/5/3
f 322/5/3 321/5/3 320/5/3
f 323/5/3 321/5/3 322/5/3
f 326/5/3 325/5/3 324/5/3
f 327/5/3 325/5/3 326/5/3
f 330/4/3 329/4/3 328/4/3
f 331/4/3 330/4/3 328/4/3
f 332/4/3 331/4/3 328/4/3
f 333/4/3 331/4/3 332/4/3
f 334/5/4 335/5/4 337/5/4
f 335/5/4 336/5/4 337/5/4
f 337/5/4 336/5/4 338/5/4
f 339/5/4 340/5/4 341/5/4
f 341/5/4 340/5/4 342/5/4
f 343/5/4 344/5/4 345/5/4
f 345/5/4 344/5/4 346/5/4
f 346/5/4 347/5/4 348/5/4
f 348/5/4 347/5/4 349/5/4
f 349/5/4 350/5/4 352/5/4
f 352/5/4 350/5/4 353/5/4
f 351/5/4 352/5/4 355/5/4
f 355/5/4 352/5/4 356/5/4
f 354/5/4 355/5/4 359/5/4
f 359/5/4 355/5/4 360/5/4
f 357/5/4 358/5/4 361/5/4
f 361/5/4 358/5/4 362/5/4
f 363/5/4 364/5/4 365/5/4
f 365/5/4 364/5/4 366/5/4
f 367/5/4 368/5/4 369/5/4
f 369/5/4 368/5/4 370/5/4
f 371/5/4 372/5/4 374/5/4
f 374/5/4 372/5/4 375/5/4
f 373/5/4 374/5/4 378/5/4
f 374/6/4 375/6/4 379/6/4
f 378/5/4 374/5/4 379/5/4
f 375/5/4 376/5/4 380/5/4
f 379/6/4 375/6/4 380/6/4
f 380/5/4 376/5/4 381/5/4
f 377/5/4 378/5/4 382/5/4
f 382/5/4 378/5/4 383/5/4
f 379/5/4 380/5/4 384/5/4
f 384/5/4 380/5/4 385/5/4
f 386/1/4 387/1/4 388/1/4
f 388/1/4 387/1/4 389/1/4
f 390/5/4 391/5/4 392/5/4
f 392/5/4 391/5/4 393/5/4
f 394/5/4 395/5/4 396/5/4
f 396/5/4 395/5/4 397/5/4
f 396/4/4 397/4/4 399/4/4
f 397/3/4 398/3/4 400/3/4
f 399/4/4 397/4/4 400/4/4
f 400/3/4 398/3/4 401/3/4
f 401/3/4 402/3/4 403/3/4
f 403/3/4 402/3/4 404/3/4
f 404/3/4 405/3/4 407/3/4
f 407/3/4 405/3/4 408/3/4
f 406/3/4 407/3/4 411/3/4
f 411/3/4 407/3/4 412/3/4
f 409/4/4 410/4/4 413/4/4
f 410/3/4 411/3/4 414/3/4
f 413/4/4 410/4/4 414/4/4
f 414/3/4 411/3/4 415/3/4
f 413/5/4 414/5/4 416/5/4
f 416/5/4 414/5/4 417/5/4
f 418/5/4 419/5/4 420/5/4
f 420/5/4 419/5/4 421/5/4
f 422/3/4 423/3/4 424/3/4
f 424/3/4 423/3/4 425/3/4
f 425/3/4 423/3/4 426/3/4
f 426/3/4 427/3/4 429/3/4
f 425/3/4 426/3/4 429/3/4
f 429/3/4 427/3/4 430/3/4
f 430/3/4 427/3/4 431/3/4
f 428/3/4 429/3/4 434/3/4
f 429/3/4 430/3/4 434/3/4
f 434/3/4 430/3/4 435/3/4
f 432/5/4 433/5/4 436/5/4
f 436/5/4 433/5/4 437/5/4
f 439/3/4 440/3/4 441/3/4
f 439/3/4 441/3/4 443/3/4
f 441/3/4 442/3/4 443/3/4
f 443/3/4 442/3/4 444/3/4
f 438/5/4 439/5/4 445/5/4
f 439/3/4 443/3/4 446/3/4
f 445/5/4 439/5/4 446/5/4
f 446/3/4 443/3/4 447/3/4
f 454/1/5 449/1/5 448/1/5
f 455/1/5 449/1/5 454/1/5
f 456/5/5 451/5/5 450/5/5
f 457/5/5 453/5/5 452/5/5
f 458/5/5 456/5/5 450/5/5
f 459/4/5 457/4/5 456/4/5
f 459/5/5 456/5/5 458/5/5
f 460/5/5 453/5/5 457/5/5
f 460/4/5 457/4/5 459/4/5
f 461/5/5 453/5/5 460/5/5
f 462/5/5 460/5/5 459/5/5
f 463/5/5 460/5/5 462/5/5
f 468/1/5 465/1/5 464/1/5
f 469/1/5 465/1/5 468/1/5
f 472/5/5 467/5/5 466/5/5
f 473/1/5 468/1/5 467/1/5
f 473/5/5 467/5/5 472/5/5
f 474/5/5 471/5/5 470/5/5
f 474/1/5 470/1/5 469/1/5
f 475/5/5 471/5/5 474/5/5
f 480/1/5 468/1/5 473/1/5
f 481/1/5 468/1/5 480/1/5
f 482/1/5 474/1/5 469/1/5
f 483/1/5 474/1/5 482/1/5
f 484/5/5 477/5/5 476/5/5
f 485/5/5 477/5/5 484/5/5
f 486/4/5 481/4/5 480/4/5
f 487/1/5 482/1/5 481/1/5
f 487/4/5 481/4/5 486/4/5
f 488/4/5 483/4/5 482/4/5
f 488/1/5 482/1/5 487/1/5
f 489/4/5 483/4/5 488/4/5
f 490/5/5 479/5/5 478/5/5
f 491/5/5 479/5/5 490/5/5
f 495/5/5 493/5/5 492/5/5
f 496/5/5 493/5/5 495/5/5
f 497/5/5 493/5/5 496/5/5
f 498/5/5 493/5/5 497/5/5
f 500/5/5 495/5/5 494/5/5
f 501/1/5 496/1/5 495/1/5
f 501/5/5 495/5/5 500/5/5
f 502/1/5 496/1/5 501/1/5
f 503/1/5 498/1/5 497/1/5
f 504/5/5 499/5/5 498/5/5
f 504/1/5 498/1/5 503/1/5
f 505/5/5 499/5/5 504/5/5
f 510/5/5 507/5/5 506/5/5
f 511/5/5 507/5/5 510/5/5
f 512/5/5 509/5/5 508/5/5
f 513/5/5 509/5/5 512/5/5
f 519/5/5 515/5/5 514/5/5
f 520/5/5 515/5/5 519/5/5
f 520/5/5 519/5/5 518/5/5
f 521/5/5 515/5/5 520/5/5
f 522/5/5 517/5/5 516/5/5
f 523/5/5 517/5/5 522/5/5
f 524/5/5 520/5/5 518/5/5
f 525/5/5 520/5/5 524/5/5
f 529/5/5 527/5/5 526/5/5
f 530/5/5 527/5/5 529/5/5
f 533/5/5 529/5/5 528/5/5
f 534/5/5 529/5/5 533/5/5
f 535/5/5 532/5/5 531/5/5
f 536/5/5 532/5/5 535/5/5
f 537/5/6 538/5/6 541/5/6
f 541/5/6 538/5/6 542/5/6
f 539/5/6 540/5/6 543/5/6
f 543/5/6 540/5/6 544/5/6
f 545/5/6 546/5/6 549/5/6
f 549/5/6 546/5/6 550/5/6
f 547/5/6 548/5/6 551/5/6
f 551/5/6 548/5/6 552/5/6
f 553/5/6 554/5/6 557/5/6
f 557/5/6 554/5/6 558/5/6
f 555/5/6 556/5/6 559/5/6
f 559/5/6 556/5/6 560/5/6
f 561/5/6 562/5/6 563/5/6
f 563/5/6 562/5/6 564/5/6
f 565/5/6 566/5/6 568/5/6
f 568/5/6 566/5/6 569/5/6
f 571/5/6 572/5/6 573/5/6
f 573/5/6 572/5/6 574/5/6
f 567/5/6 568/5/6 575/5/6
f 575/5/6 568/5/6 576/5/6
f 569/5/6 570/5/6 577/5/6
f 577/5/6 570/5/6 578/5/6
f 579/3/6 580/3/6 583/3/6
f 583/3/6 580/3/6 584/3/6
f 581/3/6 582/3/6 585/3/6
f 585/3/6 582/3/6 586/3/6
f 587/5/6 588/5/6 589/5/6
f 589/5/6 588/5/6 590/5/6
f 591/3/6 592/3/6 593/3/6
f 593/3/6 592/3/6 594/3/6
f 595/5/6 596/5/6 600/5/6
f 596/4/6 597/4/6 601/4/6
f 600/5/6 596/5/6 601/5/6
f 597/5/6 598/5/6 602/5/6
f 601/4/6 597/4/6 602/4/6
f 602/5/6 598/5/6 603/5/6
f 599/5/6 600/5/6 605/5/6
f 605/5/6 600/5/6 606/5/6
f 603/5/6 604/5/6 607/5/6
f 607/5/6 604/5/6 608/5/6
f 609/5/6 610/5/6 613/5/6
f 613/5/6 610/5/6 614/5/6
f 611/5/6 612/5/6 615/5/6
f 615/5/6 612/5/6 616/5/6
f 617/3/6 618/3/6 621/3/6
f 621/3/6 618/3/6 622/3/6
f 619/3/6 620/3/6 625/3/6
f 625/3/6 620/3/6 626/3/6
f 622/3/6 623/3/6 627/3/6
f 627/3/6 623/3/6 628/3/6
f 624/3/6 625/3/6 629/3/6
f 629/3/6 625/3/6 630/3/6
f 631/5/6 632/5/6 636/5/6
f 636/5/6 632/5/6 637/5/6
f 633/5/6 634/5/6 638/5/6
f 638/5/6 634/5/6 639/5/6
f 635/5/6 636/5/6 641/5/6
f 641/5/6 636/5/6 642/5/6
f 639/5/6 640/5/6 645/5/6
f 645/5/6 640/5/6 646/5/6
f 642/3/6 643/3/6 647/3/6
f 647/3/6 643/3/6 648/3/6
f 644/3/6 645/3/6 649/3/6
f 649/3/6 645/3/6 650/3/6
f 648/3/6 649/3/6 651/3/6
f 651/3/6 649/3/6 652/3/6
f 653/5/6 654/5/6 658/5/6
f 654/4/6 655/4/6 659/4/6
f 658/5/6 654/5/6 659/5/6
f 655/5/6 656/5/6 660/5/6
f 659/4/6 655/4/6 660/4/6
f 660/5/6 656/5/6 661/5/6
f 657/5/6 658/5/6 663/5/6
f 663/5/6 658/5/6 664/5/6
f 661/5/6 662/5/6 665/5/6
f 665/5/6 662/5/6 666/5/6
f 664/3/6 665/3/6 667/3/6
f 667/3/6 665/3/6 668/3/6
f 669/5/6 670/5/6 673/5/6
f 670/4/6 671/4/6 673/4/6
f 671/5/6 672/5/6 674/5/6
f 673/4/6 671/4/6 674/4/6
f 669/5/6 673/5/6 675/5/6
f 673/5/6 674/5/6 675/5/6
f 674/5/6 672/5/6 676/5/6
f 675/5/6 674/5/6 676/5/6
